<?xml version="1.0" standalone="no"?>
 <!DOCTYPE svg PUBLIC "-//W3C//DTD SVG 1.1//EN" 
 "http://www.w3.org/Graphics/SVG/1.1/DTD/svg11.dtd"> 
<svg
  xmlns:svg="http://www.w3.org/2000/svg"
  xmlns="http://www.w3.org/2000/svg"
  xmlns:xlink="http://www.w3.org/1999/xlink"
  version="1.1"
  width="27.940000cm" height="21.590000cm" viewBox="0 0 110000 85000">
<title>SVG Picture created as DS1000_DIP14.svg date 2021/10/17 06:14:36 </title>
  <desc>Picture generated by Eeschema-SVG </desc>
<g style="fill:#000000; fill-opacity:1;stroke:#000000; stroke-opacity:1;
stroke-linecap:round; stroke-linejoin:round;"
 transform="translate(0 0) scale(1 1)">
</g>
<g style="fill:#000000; fill-opacity:0.0; 
stroke:#000000; stroke-width:-10; stroke-opacity:1; 
stroke-linecap:round; stroke-linejoin:round;">
</g>
<g style="fill:#840000; fill-opacity:0.0; 
stroke:#840000; stroke-width:-10; stroke-opacity:1; 
stroke-linecap:round; stroke-linejoin:round;">
</g>
<g style="fill:#840000; fill-opacity:0.0; 
stroke:#840000; stroke-width:100; stroke-opacity:1; 
stroke-linecap:round; stroke-linejoin:round;">
</g>
<g style="fill:#840000; fill-opacity:0.0; 
stroke:#840000; stroke-width:60; stroke-opacity:1; 
stroke-linecap:round; stroke-linejoin:round;">
<rect x="62760" y="67680" width="42520" height="12600" rx="0" />
</g>
<g style="fill:#840000; fill-opacity:0.0; 
stroke:#840000; stroke-width:100; stroke-opacity:1; 
stroke-linecap:round; stroke-linejoin:round;">
</g>
<g style="fill:#840000; fill-opacity:0.0; 
stroke:#840000; stroke-width:60; stroke-opacity:1; 
stroke-linecap:round; stroke-linejoin:round;">
<rect x="3940" y="3940" width="102120" height="77120" rx="0" />
</g>
<g style="fill:#840000; fill-opacity:0.0; 
stroke:#840000; stroke-width:100; stroke-opacity:1; 
stroke-linecap:round; stroke-linejoin:round;">
</g>
<g style="fill:#840000; fill-opacity:0.0; 
stroke:#840000; stroke-width:60; stroke-opacity:1; 
stroke-linecap:round; stroke-linejoin:round;">
<rect x="4720" y="4720" width="100560" height="75560" rx="0" />
</g>
<g style="fill:#840000; fill-opacity:0.0; 
stroke:#840000; stroke-width:100; stroke-opacity:1; 
stroke-linecap:round; stroke-linejoin:round;">
</g>
<g style="fill:#840000; fill-opacity:0.0; 
stroke:#840000; stroke-width:60; stroke-opacity:1; 
stroke-linecap:round; stroke-linejoin:round;">
<path d="M23620 4720
L23620 3940
" />
</g>
<g style="fill:#840000; fill-opacity:0.0; 
stroke:#840000; stroke-width:100; stroke-opacity:1; 
stroke-linecap:round; stroke-linejoin:round;">
</g>
<g style="fill:#840000; fill-opacity:0.0; 
stroke:#840000; stroke-width:60; stroke-opacity:1; 
stroke-linecap:round; stroke-linejoin:round;">
<path d="M43310 4720
L43310 3940
" />
</g>
<g style="fill:#840000; fill-opacity:0.0; 
stroke:#840000; stroke-width:100; stroke-opacity:1; 
stroke-linecap:round; stroke-linejoin:round;">
</g>
<g style="fill:#840000; fill-opacity:0.0; 
stroke:#840000; stroke-width:60; stroke-opacity:1; 
stroke-linecap:round; stroke-linejoin:round;">
<path d="M62990 4720
L62990 3940
" />
</g>
<g style="fill:#840000; fill-opacity:0.0; 
stroke:#840000; stroke-width:100; stroke-opacity:1; 
stroke-linecap:round; stroke-linejoin:round;">
</g>
<g style="fill:#840000; fill-opacity:0.0; 
stroke:#840000; stroke-width:60; stroke-opacity:1; 
stroke-linecap:round; stroke-linejoin:round;">
<path d="M82680 4720
L82680 3940
" />
</g>
<g style="fill:#840000; fill-opacity:0.0; 
stroke:#840000; stroke-width:100; stroke-opacity:1; 
stroke-linecap:round; stroke-linejoin:round;">
</g>
<g style="fill:#840000; fill-opacity:0.0; 
stroke:#840000; stroke-width:60; stroke-opacity:1; 
stroke-linecap:round; stroke-linejoin:round;">
<path d="M102360 4720
L102360 3940
" />
</g>
<g style="fill:#840000; fill-opacity:0.0; 
stroke:#840000; stroke-width:100; stroke-opacity:1; 
stroke-linecap:round; stroke-linejoin:round;">
</g>
<g style="fill:#840000; fill-opacity:0.0; 
stroke:#840000; stroke-width:60; stroke-opacity:1; 
stroke-linecap:round; stroke-linejoin:round;">
<text x="13780" y="4580"
textLength="640" font-size="680" lengthAdjust="spacingAndGlyphs"
text-anchor="start" opacity="0">1</text>
<path d="M14190 4560
L13900 4560
" />
<path d="M14050 4560
L14050 4050
L14000 4120
L13950 4170
L13900 4190
" />
</g>
<g style="fill:#840000; fill-opacity:0.0; 
stroke:#840000; stroke-width:100; stroke-opacity:1; 
stroke-linecap:round; stroke-linejoin:round;">
</g>
<g style="fill:#840000; fill-opacity:0.0; 
stroke:#840000; stroke-width:60; stroke-opacity:1; 
stroke-linecap:round; stroke-linejoin:round;">
<text x="33460" y="4580"
textLength="550" font-size="680" lengthAdjust="spacingAndGlyphs"
text-anchor="start" opacity="0">2</text>
<path d="M33580 4090
L33610 4070
L33660 4050
L33780 4050
L33830 4070
L33850 4090
L33870 4140
L33870 4190
L33850 4260
L33560 4560
L33870 4560
" />
</g>
<g style="fill:#840000; fill-opacity:0.0; 
stroke:#840000; stroke-width:100; stroke-opacity:1; 
stroke-linecap:round; stroke-linejoin:round;">
</g>
<g style="fill:#840000; fill-opacity:0.0; 
stroke:#840000; stroke-width:60; stroke-opacity:1; 
stroke-linecap:round; stroke-linejoin:round;">
<text x="53150" y="4580"
textLength="550" font-size="680" lengthAdjust="spacingAndGlyphs"
text-anchor="start" opacity="0">3</text>
<path d="M53250 4050
L53560 4050
L53390 4240
L53470 4240
L53520 4260
L53540 4290
L53560 4340
L53560 4460
L53540 4510
L53520 4530
L53470 4560
L53320 4560
L53270 4530
L53250 4510
" />
</g>
<g style="fill:#840000; fill-opacity:0.0; 
stroke:#840000; stroke-width:100; stroke-opacity:1; 
stroke-linecap:round; stroke-linejoin:round;">
</g>
<g style="fill:#840000; fill-opacity:0.0; 
stroke:#840000; stroke-width:60; stroke-opacity:1; 
stroke-linecap:round; stroke-linejoin:round;">
<text x="72830" y="4580"
textLength="550" font-size="680" lengthAdjust="spacingAndGlyphs"
text-anchor="start" opacity="0">4</text>
<path d="M73200 4220
L73200 4560
" />
<path d="M73070 4020
L72950 4390
L73270 4390
" />
</g>
<g style="fill:#840000; fill-opacity:0.0; 
stroke:#840000; stroke-width:100; stroke-opacity:1; 
stroke-linecap:round; stroke-linejoin:round;">
</g>
<g style="fill:#840000; fill-opacity:0.0; 
stroke:#840000; stroke-width:60; stroke-opacity:1; 
stroke-linecap:round; stroke-linejoin:round;">
<text x="92520" y="4580"
textLength="550" font-size="680" lengthAdjust="spacingAndGlyphs"
text-anchor="start" opacity="0">5</text>
<path d="M92910 4050
L92670 4050
L92640 4290
L92670 4260
L92720 4240
L92840 4240
L92890 4260
L92910 4290
L92930 4340
L92930 4460
L92910 4510
L92890 4530
L92840 4560
L92720 4560
L92670 4530
L92640 4510
" />
</g>
<g style="fill:#840000; fill-opacity:0.0; 
stroke:#840000; stroke-width:100; stroke-opacity:1; 
stroke-linecap:round; stroke-linejoin:round;">
</g>
<g style="fill:#840000; fill-opacity:0.0; 
stroke:#840000; stroke-width:60; stroke-opacity:1; 
stroke-linecap:round; stroke-linejoin:round;">
<path d="M23620 80280
L23620 81060
" />
</g>
<g style="fill:#840000; fill-opacity:0.0; 
stroke:#840000; stroke-width:100; stroke-opacity:1; 
stroke-linecap:round; stroke-linejoin:round;">
</g>
<g style="fill:#840000; fill-opacity:0.0; 
stroke:#840000; stroke-width:60; stroke-opacity:1; 
stroke-linecap:round; stroke-linejoin:round;">
<path d="M43310 80280
L43310 81060
" />
</g>
<g style="fill:#840000; fill-opacity:0.0; 
stroke:#840000; stroke-width:100; stroke-opacity:1; 
stroke-linecap:round; stroke-linejoin:round;">
</g>
<g style="fill:#840000; fill-opacity:0.0; 
stroke:#840000; stroke-width:60; stroke-opacity:1; 
stroke-linecap:round; stroke-linejoin:round;">
<path d="M62990 80280
L62990 81060
" />
</g>
<g style="fill:#840000; fill-opacity:0.0; 
stroke:#840000; stroke-width:100; stroke-opacity:1; 
stroke-linecap:round; stroke-linejoin:round;">
</g>
<g style="fill:#840000; fill-opacity:0.0; 
stroke:#840000; stroke-width:60; stroke-opacity:1; 
stroke-linecap:round; stroke-linejoin:round;">
<path d="M82680 80280
L82680 81060
" />
</g>
<g style="fill:#840000; fill-opacity:0.0; 
stroke:#840000; stroke-width:100; stroke-opacity:1; 
stroke-linecap:round; stroke-linejoin:round;">
</g>
<g style="fill:#840000; fill-opacity:0.0; 
stroke:#840000; stroke-width:60; stroke-opacity:1; 
stroke-linecap:round; stroke-linejoin:round;">
<path d="M102360 80280
L102360 81060
" />
</g>
<g style="fill:#840000; fill-opacity:0.0; 
stroke:#840000; stroke-width:100; stroke-opacity:1; 
stroke-linecap:round; stroke-linejoin:round;">
</g>
<g style="fill:#840000; fill-opacity:0.0; 
stroke:#840000; stroke-width:60; stroke-opacity:1; 
stroke-linecap:round; stroke-linejoin:round;">
<text x="13780" y="80920"
textLength="550" font-size="680" lengthAdjust="spacingAndGlyphs"
text-anchor="start" opacity="0">1</text>
<path d="M14190 80900
L13900 80900
" />
<path d="M14050 80900
L14050 80390
L14000 80460
L13950 80510
L13900 80530
" />
</g>
<g style="fill:#840000; fill-opacity:0.0; 
stroke:#840000; stroke-width:100; stroke-opacity:1; 
stroke-linecap:round; stroke-linejoin:round;">
</g>
<g style="fill:#840000; fill-opacity:0.0; 
stroke:#840000; stroke-width:60; stroke-opacity:1; 
stroke-linecap:round; stroke-linejoin:round;">
<text x="33460" y="80920"
textLength="550" font-size="680" lengthAdjust="spacingAndGlyphs"
text-anchor="start" opacity="0">2</text>
<path d="M33580 80430
L33610 80410
L33660 80390
L33780 80390
L33830 80410
L33850 80430
L33870 80480
L33870 80530
L33850 80600
L33560 80900
L33870 80900
" />
</g>
<g style="fill:#840000; fill-opacity:0.0; 
stroke:#840000; stroke-width:100; stroke-opacity:1; 
stroke-linecap:round; stroke-linejoin:round;">
</g>
<g style="fill:#840000; fill-opacity:0.0; 
stroke:#840000; stroke-width:60; stroke-opacity:1; 
stroke-linecap:round; stroke-linejoin:round;">
<text x="53150" y="80920"
textLength="550" font-size="680" lengthAdjust="spacingAndGlyphs"
text-anchor="start" opacity="0">3</text>
<path d="M53250 80390
L53560 80390
L53390 80580
L53470 80580
L53520 80600
L53540 80630
L53560 80680
L53560 80800
L53540 80850
L53520 80870
L53470 80900
L53320 80900
L53270 80870
L53250 80850
" />
</g>
<g style="fill:#840000; fill-opacity:0.0; 
stroke:#840000; stroke-width:100; stroke-opacity:1; 
stroke-linecap:round; stroke-linejoin:round;">
</g>
<g style="fill:#840000; fill-opacity:0.0; 
stroke:#840000; stroke-width:60; stroke-opacity:1; 
stroke-linecap:round; stroke-linejoin:round;">
<text x="72830" y="80920"
textLength="550" font-size="680" lengthAdjust="spacingAndGlyphs"
text-anchor="start" opacity="0">4</text>
<path d="M73200 80560
L73200 80900
" />
<path d="M73070 80360
L72950 80730
L73270 80730
" />
</g>
<g style="fill:#840000; fill-opacity:0.0; 
stroke:#840000; stroke-width:100; stroke-opacity:1; 
stroke-linecap:round; stroke-linejoin:round;">
</g>
<g style="fill:#840000; fill-opacity:0.0; 
stroke:#840000; stroke-width:60; stroke-opacity:1; 
stroke-linecap:round; stroke-linejoin:round;">
<text x="92520" y="80920"
textLength="550" font-size="680" lengthAdjust="spacingAndGlyphs"
text-anchor="start" opacity="0">5</text>
<path d="M92910 80390
L92670 80390
L92640 80630
L92670 80600
L92720 80580
L92840 80580
L92890 80600
L92910 80630
L92930 80680
L92930 80800
L92910 80850
L92890 80870
L92840 80900
L92720 80900
L92670 80870
L92640 80850
" />
</g>
<g style="fill:#840000; fill-opacity:0.0; 
stroke:#840000; stroke-width:100; stroke-opacity:1; 
stroke-linecap:round; stroke-linejoin:round;">
</g>
<g style="fill:#840000; fill-opacity:0.0; 
stroke:#840000; stroke-width:60; stroke-opacity:1; 
stroke-linecap:round; stroke-linejoin:round;">
<path d="M3940 23620
L4720 23620
" />
</g>
<g style="fill:#840000; fill-opacity:0.0; 
stroke:#840000; stroke-width:100; stroke-opacity:1; 
stroke-linecap:round; stroke-linejoin:round;">
</g>
<g style="fill:#840000; fill-opacity:0.0; 
stroke:#840000; stroke-width:60; stroke-opacity:1; 
stroke-linecap:round; stroke-linejoin:round;">
<path d="M3940 43310
L4720 43310
" />
</g>
<g style="fill:#840000; fill-opacity:0.0; 
stroke:#840000; stroke-width:100; stroke-opacity:1; 
stroke-linecap:round; stroke-linejoin:round;">
</g>
<g style="fill:#840000; fill-opacity:0.0; 
stroke:#840000; stroke-width:60; stroke-opacity:1; 
stroke-linecap:round; stroke-linejoin:round;">
<path d="M3940 62990
L4720 62990
" />
</g>
<g style="fill:#840000; fill-opacity:0.0; 
stroke:#840000; stroke-width:100; stroke-opacity:1; 
stroke-linecap:round; stroke-linejoin:round;">
</g>
<g style="fill:#840000; fill-opacity:0.0; 
stroke:#840000; stroke-width:60; stroke-opacity:1; 
stroke-linecap:round; stroke-linejoin:round;">
<text x="4330" y="14030"
textLength="500" font-size="680" lengthAdjust="spacingAndGlyphs"
text-anchor="middle" opacity="0">A</text>
<path d="M4200 13860
L4450 13860
" />
<path d="M4160 14010
L4330 13500
L4500 14010
" />
</g>
<g style="fill:#840000; fill-opacity:0.0; 
stroke:#840000; stroke-width:100; stroke-opacity:1; 
stroke-linecap:round; stroke-linejoin:round;">
</g>
<g style="fill:#840000; fill-opacity:0.0; 
stroke:#840000; stroke-width:60; stroke-opacity:1; 
stroke-linecap:round; stroke-linejoin:round;">
<text x="4330" y="33710"
textLength="570" font-size="680" lengthAdjust="spacingAndGlyphs"
text-anchor="middle" opacity="0">B</text>
<path d="M4360 33420
L4430 33440
L4460 33470
L4480 33520
L4480 33590
L4460 33640
L4430 33660
L4390 33690
L4190 33690
L4190 33180
L4360 33180
L4410 33200
L4430 33220
L4460 33270
L4460 33320
L4430 33370
L4410 33390
L4360 33420
L4190 33420
" />
</g>
<g style="fill:#840000; fill-opacity:0.0; 
stroke:#840000; stroke-width:100; stroke-opacity:1; 
stroke-linecap:round; stroke-linejoin:round;">
</g>
<g style="fill:#840000; fill-opacity:0.0; 
stroke:#840000; stroke-width:60; stroke-opacity:1; 
stroke-linecap:round; stroke-linejoin:round;">
<text x="4330" y="53400"
textLength="570" font-size="680" lengthAdjust="spacingAndGlyphs"
text-anchor="middle" opacity="0">C</text>
<path d="M4480 53330
L4460 53350
L4390 53380
L4340 53380
L4260 53350
L4220 53300
L4190 53250
L4170 53160
L4170 53080
L4190 52990
L4220 52940
L4260 52890
L4340 52870
L4390 52870
L4460 52890
L4480 52910
" />
</g>
<g style="fill:#840000; fill-opacity:0.0; 
stroke:#840000; stroke-width:100; stroke-opacity:1; 
stroke-linecap:round; stroke-linejoin:round;">
</g>
<g style="fill:#840000; fill-opacity:0.0; 
stroke:#840000; stroke-width:60; stroke-opacity:1; 
stroke-linecap:round; stroke-linejoin:round;">
<text x="4330" y="73080"
textLength="570" font-size="680" lengthAdjust="spacingAndGlyphs"
text-anchor="middle" opacity="0">D</text>
<path d="M4190 73060
L4190 72550
L4310 72550
L4390 72570
L4430 72620
L4460 72670
L4480 72760
L4480 72840
L4460 72930
L4430 72980
L4390 73030
L4310 73060
L4190 73060
" />
</g>
<g style="fill:#840000; fill-opacity:0.0; 
stroke:#840000; stroke-width:100; stroke-opacity:1; 
stroke-linecap:round; stroke-linejoin:round;">
</g>
<g style="fill:#840000; fill-opacity:0.0; 
stroke:#840000; stroke-width:60; stroke-opacity:1; 
stroke-linecap:round; stroke-linejoin:round;">
<path d="M106060 23620
L105280 23620
" />
</g>
<g style="fill:#840000; fill-opacity:0.0; 
stroke:#840000; stroke-width:100; stroke-opacity:1; 
stroke-linecap:round; stroke-linejoin:round;">
</g>
<g style="fill:#840000; fill-opacity:0.0; 
stroke:#840000; stroke-width:60; stroke-opacity:1; 
stroke-linecap:round; stroke-linejoin:round;">
<path d="M106060 43310
L105280 43310
" />
</g>
<g style="fill:#840000; fill-opacity:0.0; 
stroke:#840000; stroke-width:100; stroke-opacity:1; 
stroke-linecap:round; stroke-linejoin:round;">
</g>
<g style="fill:#840000; fill-opacity:0.0; 
stroke:#840000; stroke-width:60; stroke-opacity:1; 
stroke-linecap:round; stroke-linejoin:round;">
<path d="M106060 62990
L105280 62990
" />
</g>
<g style="fill:#840000; fill-opacity:0.0; 
stroke:#840000; stroke-width:100; stroke-opacity:1; 
stroke-linecap:round; stroke-linejoin:round;">
</g>
<g style="fill:#840000; fill-opacity:0.0; 
stroke:#840000; stroke-width:60; stroke-opacity:1; 
stroke-linecap:round; stroke-linejoin:round;">
<text x="105670" y="14030"
textLength="500" font-size="680" lengthAdjust="spacingAndGlyphs"
text-anchor="middle" opacity="0">A</text>
<path d="M105540 13860
L105790 13860
" />
<path d="M105500 14010
L105670 13500
L105840 14010
" />
</g>
<g style="fill:#840000; fill-opacity:0.0; 
stroke:#840000; stroke-width:100; stroke-opacity:1; 
stroke-linecap:round; stroke-linejoin:round;">
</g>
<g style="fill:#840000; fill-opacity:0.0; 
stroke:#840000; stroke-width:60; stroke-opacity:1; 
stroke-linecap:round; stroke-linejoin:round;">
<text x="105670" y="33710"
textLength="570" font-size="680" lengthAdjust="spacingAndGlyphs"
text-anchor="middle" opacity="0">B</text>
<path d="M105700 33420
L105770 33440
L105800 33470
L105820 33520
L105820 33590
L105800 33640
L105770 33660
L105730 33690
L105530 33690
L105530 33180
L105700 33180
L105750 33200
L105770 33220
L105800 33270
L105800 33320
L105770 33370
L105750 33390
L105700 33420
L105530 33420
" />
</g>
<g style="fill:#840000; fill-opacity:0.0; 
stroke:#840000; stroke-width:100; stroke-opacity:1; 
stroke-linecap:round; stroke-linejoin:round;">
</g>
<g style="fill:#840000; fill-opacity:0.0; 
stroke:#840000; stroke-width:60; stroke-opacity:1; 
stroke-linecap:round; stroke-linejoin:round;">
<text x="105670" y="53400"
textLength="570" font-size="680" lengthAdjust="spacingAndGlyphs"
text-anchor="middle" opacity="0">C</text>
<path d="M105820 53330
L105800 53350
L105730 53380
L105680 53380
L105600 53350
L105560 53300
L105530 53250
L105510 53160
L105510 53080
L105530 52990
L105560 52940
L105600 52890
L105680 52870
L105730 52870
L105800 52890
L105820 52910
" />
</g>
<g style="fill:#840000; fill-opacity:0.0; 
stroke:#840000; stroke-width:100; stroke-opacity:1; 
stroke-linecap:round; stroke-linejoin:round;">
</g>
<g style="fill:#840000; fill-opacity:0.0; 
stroke:#840000; stroke-width:60; stroke-opacity:1; 
stroke-linecap:round; stroke-linejoin:round;">
<text x="105670" y="73080"
textLength="570" font-size="680" lengthAdjust="spacingAndGlyphs"
text-anchor="middle" opacity="0">D</text>
<path d="M105530 73060
L105530 72550
L105650 72550
L105730 72570
L105770 72620
L105800 72670
L105820 72760
L105820 72840
L105800 72930
L105770 72980
L105730 73030
L105650 73060
L105530 73060
" />
</g>
<g style="fill:#840000; fill-opacity:0.0; 
stroke:#840000; stroke-width:100; stroke-opacity:1; 
stroke-linecap:round; stroke-linejoin:round;">
</g>
<g style="fill:#840000; fill-opacity:0.0; 
stroke:#840000; stroke-width:60; stroke-opacity:1; 
stroke-linecap:round; stroke-linejoin:round;">
<text x="71810" y="78640"
textLength="8710" font-size="780" lengthAdjust="spacingAndGlyphs"
text-anchor="start" opacity="0">Date: 2021-10-17</text>
<path d="M71980 78610
L71980 78020
L72120 78020
L72200 78050
L72260 78110
L72280 78160
L72310 78270
L72310 78360
L72280 78470
L72260 78530
L72200 78580
L72120 78610
L71980 78610
" />
<path d="M72820 78610
L72820 78300
L72790 78250
L72730 78220
L72620 78220
L72570 78250
" />
<path d="M72820 78580
L72760 78610
L72620 78610
L72570 78580
L72540 78530
L72540 78470
L72570 78420
L72620 78390
L72760 78390
L72820 78360
" />
<path d="M73020 78220
L73240 78220
" />
<path d="M73100 78020
L73100 78530
L73130 78580
L73180 78610
L73240 78610
" />
<path d="M73660 78580
L73610 78610
L73490 78610
L73440 78580
L73410 78530
L73410 78300
L73440 78250
L73490 78220
L73610 78220
L73660 78250
L73690 78300
L73690 78360
L73410 78420
" />
<path d="M73940 78560
L73970 78580
L73940 78610
L73910 78580
L73940 78560
L73940 78610
" />
<path d="M73940 78250
L73970 78270
L73940 78300
L73910 78270
L73940 78250
L73940 78300
" />
<path d="M74640 78080
L74670 78050
L74730 78020
L74870 78020
L74930 78050
L74950 78080
L74980 78130
L74980 78190
L74950 78270
L74620 78610
L74980 78610
" />
<path d="M75350 78020
L75400 78020
L75460 78050
L75490 78080
L75520 78130
L75540 78250
L75540 78390
L75520 78500
L75490 78560
L75460 78580
L75400 78610
L75350 78610
L75290 78580
L75260 78560
L75230 78500
L75210 78390
L75210 78250
L75230 78130
L75260 78080
L75290 78050
L75350 78020
" />
<path d="M75770 78080
L75800 78050
L75850 78020
L75990 78020
L76050 78050
L76080 78080
L76110 78130
L76110 78190
L76080 78270
L75740 78610
L76110 78610
" />
<path d="M76670 78610
L76330 78610
" />
<path d="M76500 78610
L76500 78020
L76440 78110
L76390 78160
L76330 78190
" />
<path d="M76920 78390
L77370 78390
" />
<path d="M77960 78610
L77620 78610
" />
<path d="M77790 78610
L77790 78020
L77740 78110
L77680 78160
L77620 78190
" />
<path d="M78330 78020
L78380 78020
L78440 78050
L78470 78080
L78490 78130
L78520 78250
L78520 78390
L78490 78500
L78470 78560
L78440 78580
L78380 78610
L78330 78610
L78270 78580
L78240 78560
L78210 78500
L78180 78390
L78180 78250
L78210 78130
L78240 78080
L78270 78050
L78330 78020
" />
<path d="M78770 78390
L79220 78390
" />
<path d="M79810 78610
L79480 78610
" />
<path d="M79650 78610
L79650 78020
L79590 78110
L79530 78160
L79480 78190
" />
<path d="M80010 78020
L80400 78020
L80150 78610
" />
</g>
<g style="fill:#840000; fill-opacity:0.0; 
stroke:#840000; stroke-width:100; stroke-opacity:1; 
stroke-linecap:round; stroke-linejoin:round;">
</g>
<g style="fill:#840000; fill-opacity:0.0; 
stroke:#840000; stroke-width:60; stroke-opacity:1; 
stroke-linecap:round; stroke-linejoin:round;">
<path d="M62760 78900
L105280 78900
" />
</g>
<g style="fill:#840000; fill-opacity:0.0; 
stroke:#840000; stroke-width:100; stroke-opacity:1; 
stroke-linecap:round; stroke-linejoin:round;">
</g>
<g style="fill:#840000; fill-opacity:0.0; 
stroke:#840000; stroke-width:60; stroke-opacity:1; 
stroke-linecap:round; stroke-linejoin:round;">
<text x="63150" y="79740"
textLength="25770" font-size="780" lengthAdjust="spacingAndGlyphs"
text-anchor="start" opacity="0">KiCad E.D.A.  kicad 5.1.10-88a1d61d58~90~ubuntu21.04.1</text>
<path d="M63320 79710
L63320 79120
" />
<path d="M63650 79710
L63400 79370
" />
<path d="M63650 79120
L63320 79460
" />
<path d="M63910 79710
L63910 79320
" />
<path d="M63910 79120
L63880 79150
L63910 79180
L63930 79150
L63910 79120
L63910 79180
" />
<path d="M64520 79660
L64500 79680
L64410 79710
L64360 79710
L64270 79680
L64210 79630
L64190 79570
L64160 79460
L64160 79370
L64190 79260
L64210 79210
L64270 79150
L64360 79120
L64410 79120
L64500 79150
L64520 79180
" />
<path d="M65030 79710
L65030 79400
L65000 79350
L64950 79320
L64830 79320
L64780 79350
" />
<path d="M65030 79680
L64970 79710
L64830 79710
L64780 79680
L64750 79630
L64750 79570
L64780 79520
L64830 79490
L64970 79490
L65030 79460
" />
<path d="M65560 79710
L65560 79120
" />
<path d="M65560 79680
L65510 79710
L65390 79710
L65340 79680
L65310 79660
L65280 79600
L65280 79430
L65310 79370
L65340 79350
L65390 79320
L65510 79320
L65560 79350
" />
<path d="M66290 79400
L66490 79400
" />
<path d="M66570 79710
L66290 79710
L66290 79120
L66570 79120
" />
<path d="M66830 79660
L66860 79680
L66830 79710
L66800 79680
L66830 79660
L66830 79710
" />
<path d="M67110 79710
L67110 79120
L67250 79120
L67330 79150
L67390 79210
L67420 79260
L67450 79370
L67450 79460
L67420 79570
L67390 79630
L67330 79680
L67250 79710
L67110 79710
" />
<path d="M67700 79660
L67730 79680
L67700 79710
L67670 79680
L67700 79660
L67700 79710
" />
<path d="M67950 79540
L68230 79540
" />
<path d="M67900 79710
L68090 79120
L68290 79710
" />
<path d="M68490 79660
L68510 79680
L68490 79710
L68460 79680
L68490 79660
L68490 79710
" />
<path d="M69670 79710
L69670 79120
" />
<path d="M69720 79490
L69890 79710
" />
<path d="M69890 79320
L69670 79540
" />
<path d="M70140 79710
L70140 79320
" />
<path d="M70140 79120
L70110 79150
L70140 79180
L70170 79150
L70140 79120
L70140 79180
" />
<path d="M70680 79680
L70620 79710
L70510 79710
L70450 79680
L70420 79660
L70400 79600
L70400 79430
L70420 79370
L70450 79350
L70510 79320
L70620 79320
L70680 79350
" />
<path d="M71180 79710
L71180 79400
L71150 79350
L71100 79320
L70990 79320
L70930 79350
" />
<path d="M71180 79680
L71130 79710
L70990 79710
L70930 79680
L70900 79630
L70900 79570
L70930 79520
L70990 79490
L71130 79490
L71180 79460
" />
<path d="M71720 79710
L71720 79120
" />
<path d="M71720 79680
L71660 79710
L71550 79710
L71490 79680
L71460 79660
L71440 79600
L71440 79430
L71460 79370
L71490 79350
L71550 79320
L71660 79320
L71720 79350
" />
<path d="M72730 79120
L72450 79120
L72420 79400
L72450 79370
L72500 79350
L72640 79350
L72700 79370
L72730 79400
L72760 79460
L72760 79600
L72730 79660
L72700 79680
L72640 79710
L72500 79710
L72450 79680
L72420 79660
" />
<path d="M73010 79660
L73040 79680
L73010 79710
L72980 79680
L73010 79660
L73010 79710
" />
<path d="M73600 79710
L73260 79710
" />
<path d="M73430 79710
L73430 79120
L73370 79210
L73320 79260
L73260 79290
" />
<path d="M73850 79660
L73880 79680
L73850 79710
L73820 79680
L73850 79660
L73850 79710
" />
<path d="M74440 79710
L74100 79710
" />
<path d="M74270 79710
L74270 79120
L74220 79210
L74160 79260
L74100 79290
" />
<path d="M74810 79120
L74860 79120
L74920 79150
L74950 79180
L74980 79230
L75000 79350
L75000 79490
L74980 79600
L74950 79660
L74920 79680
L74860 79710
L74810 79710
L74750 79680
L74720 79660
L74690 79600
L74670 79490
L74670 79350
L74690 79230
L74720 79180
L74750 79150
L74810 79120
" />
<path d="M75260 79490
L75710 79490
" />
<path d="M76070 79370
L76010 79350
L75990 79320
L75960 79260
L75960 79230
L75990 79180
L76010 79150
L76070 79120
L76180 79120
L76240 79150
L76270 79180
L76300 79230
L76300 79260
L76270 79320
L76240 79350
L76180 79370
L76070 79370
L76010 79400
L75990 79430
L75960 79490
L75960 79600
L75990 79660
L76010 79680
L76070 79710
L76180 79710
L76240 79680
L76270 79660
L76300 79600
L76300 79490
L76270 79430
L76240 79400
L76180 79370
" />
<path d="M76630 79370
L76580 79350
L76550 79320
L76520 79260
L76520 79230
L76550 79180
L76580 79150
L76630 79120
L76750 79120
L76800 79150
L76830 79180
L76860 79230
L76860 79260
L76830 79320
L76800 79350
L76750 79370
L76630 79370
L76580 79400
L76550 79430
L76520 79490
L76520 79600
L76550 79660
L76580 79680
L76630 79710
L76750 79710
L76800 79680
L76830 79660
L76860 79600
L76860 79490
L76830 79430
L76800 79400
L76750 79370
" />
<path d="M77360 79710
L77360 79400
L77340 79350
L77280 79320
L77170 79320
L77110 79350
" />
<path d="M77360 79680
L77310 79710
L77170 79710
L77110 79680
L77080 79630
L77080 79570
L77110 79520
L77170 79490
L77310 79490
L77360 79460
" />
<path d="M77950 79710
L77620 79710
" />
<path d="M77780 79710
L77780 79120
L77730 79210
L77670 79260
L77620 79290
" />
<path d="M78460 79710
L78460 79120
" />
<path d="M78460 79680
L78400 79710
L78290 79710
L78230 79680
L78210 79660
L78180 79600
L78180 79430
L78210 79370
L78230 79350
L78290 79320
L78400 79320
L78460 79350
" />
<path d="M78990 79120
L78880 79120
L78820 79150
L78800 79180
L78740 79260
L78710 79370
L78710 79600
L78740 79660
L78770 79680
L78820 79710
L78940 79710
L78990 79680
L79020 79660
L79050 79600
L79050 79460
L79020 79400
L78990 79370
L78940 79350
L78820 79350
L78770 79370
L78740 79400
L78710 79460
" />
<path d="M79610 79710
L79270 79710
" />
<path d="M79440 79710
L79440 79120
L79390 79210
L79330 79260
L79270 79290
" />
<path d="M80120 79710
L80120 79120
" />
<path d="M80120 79680
L80060 79710
L79950 79710
L79890 79680
L79860 79660
L79840 79600
L79840 79430
L79860 79370
L79890 79350
L79950 79320
L80060 79320
L80120 79350
" />
<path d="M80680 79120
L80400 79120
L80370 79400
L80400 79370
L80450 79350
L80590 79350
L80650 79370
L80680 79400
L80710 79460
L80710 79600
L80680 79660
L80650 79680
L80590 79710
L80450 79710
L80400 79680
L80370 79660
" />
<path d="M81040 79370
L80990 79350
L80960 79320
L80930 79260
L80930 79230
L80960 79180
L80990 79150
L81040 79120
L81160 79120
L81210 79150
L81240 79180
L81270 79230
L81270 79260
L81240 79320
L81210 79350
L81160 79370
L81040 79370
L80990 79400
L80960 79430
L80930 79490
L80930 79600
L80960 79660
L80990 79680
L81040 79710
L81160 79710
L81210 79680
L81240 79660
L81270 79600
L81270 79490
L81240 79430
L81210 79400
L81160 79370
" />
<path d="M81380 78960
L81940 78960
" />
<path d="M81550 79710
L81660 79710
L81720 79680
L81750 79660
L81800 79570
L81830 79460
L81830 79230
L81800 79180
L81770 79150
L81720 79120
L81610 79120
L81550 79150
L81520 79180
L81490 79230
L81490 79370
L81520 79430
L81550 79460
L81610 79490
L81720 79490
L81770 79460
L81800 79430
L81830 79370
" />
<path d="M81940 78960
L82500 78960
" />
<path d="M82200 79120
L82250 79120
L82310 79150
L82340 79180
L82360 79230
L82390 79350
L82390 79490
L82360 79600
L82340 79660
L82310 79680
L82250 79710
L82200 79710
L82140 79680
L82110 79660
L82080 79600
L82060 79490
L82060 79350
L82080 79230
L82110 79180
L82140 79150
L82200 79120
" />
<path d="M82900 79320
L82900 79710
" />
<path d="M82650 79320
L82650 79630
L82670 79680
L82730 79710
L82810 79710
L82870 79680
L82900 79660
" />
<path d="M83180 79710
L83180 79120
" />
<path d="M83180 79350
L83240 79320
L83350 79320
L83400 79350
L83430 79370
L83460 79430
L83460 79600
L83430 79660
L83400 79680
L83350 79710
L83240 79710
L83180 79680
" />
<path d="M83970 79320
L83970 79710
" />
<path d="M83710 79320
L83710 79630
L83740 79680
L83800 79710
L83880 79710
L83940 79680
L83970 79660
" />
<path d="M84250 79320
L84250 79710
" />
<path d="M84250 79370
L84270 79350
L84330 79320
L84420 79320
L84470 79350
L84500 79400
L84500 79710
" />
<path d="M84700 79320
L84920 79320
" />
<path d="M84780 79120
L84780 79630
L84810 79680
L84860 79710
L84920 79710
" />
<path d="M85370 79320
L85370 79710
" />
<path d="M85120 79320
L85120 79630
L85150 79680
L85200 79710
L85290 79710
L85340 79680
L85370 79660
" />
<path d="M85620 79180
L85650 79150
L85710 79120
L85850 79120
L85900 79150
L85930 79180
L85960 79230
L85960 79290
L85930 79370
L85600 79710
L85960 79710
" />
<path d="M86520 79710
L86190 79710
" />
<path d="M86350 79710
L86350 79120
L86300 79210
L86240 79260
L86190 79290
" />
<path d="M86780 79660
L86800 79680
L86780 79710
L86750 79680
L86780 79660
L86780 79710
" />
<path d="M87170 79120
L87220 79120
L87280 79150
L87310 79180
L87340 79230
L87360 79350
L87360 79490
L87340 79600
L87310 79660
L87280 79680
L87220 79710
L87170 79710
L87110 79680
L87080 79660
L87060 79600
L87030 79490
L87030 79350
L87060 79230
L87080 79180
L87110 79150
L87170 79120
" />
<path d="M87870 79320
L87870 79710
" />
<path d="M87730 79090
L87590 79520
L87950 79520
" />
<path d="M88180 79660
L88210 79680
L88180 79710
L88150 79680
L88180 79660
L88180 79710
" />
<path d="M88770 79710
L88430 79710
" />
<path d="M88600 79710
L88600 79120
L88540 79210
L88490 79260
L88430 79290
" />
</g>
<g style="fill:#840000; fill-opacity:0.0; 
stroke:#840000; stroke-width:100; stroke-opacity:1; 
stroke-linecap:round; stroke-linejoin:round;">
</g>
<g style="fill:#840000; fill-opacity:0.0; 
stroke:#840000; stroke-width:60; stroke-opacity:1; 
stroke-linecap:round; stroke-linejoin:round;">
<path d="M62760 77720
L105280 77720
" />
</g>
<g style="fill:#840000; fill-opacity:0.0; 
stroke:#840000; stroke-width:100; stroke-opacity:1; 
stroke-linecap:round; stroke-linejoin:round;">
</g>
<g style="fill:#840000; fill-opacity:0.0; 
stroke:#840000; stroke-width:120; stroke-opacity:1; 
stroke-linecap:round; stroke-linejoin:round;">
<text x="96610" y="78640"
textLength="4020" font-size="780" lengthAdjust="spacingAndGlyphs"
text-anchor="start" opacity="0">Rev: 001</text>
<path d="M97160 78610
L96960 78330
" />
<path d="M96820 78610
L96820 78020
L97050 78020
L97100 78050
L97130 78080
L97160 78130
L97160 78220
L97130 78270
L97100 78300
L97050 78330
L96820 78330
" />
<path d="M97640 78580
L97580 78610
L97470 78610
L97410 78580
L97390 78530
L97390 78300
L97410 78250
L97470 78220
L97580 78220
L97640 78250
L97670 78300
L97670 78360
L97390 78420
" />
<path d="M97860 78220
L98000 78610
L98140 78220
" />
<path d="M98370 78560
L98400 78580
L98370 78610
L98340 78580
L98370 78560
L98370 78610
" />
<path d="M98370 78250
L98400 78270
L98370 78300
L98340 78270
L98370 78250
L98370 78300
" />
<path d="M99210 78020
L99270 78020
L99320 78050
L99350 78080
L99380 78130
L99410 78250
L99410 78390
L99380 78500
L99350 78560
L99320 78580
L99270 78610
L99210 78610
L99160 78580
L99130 78560
L99100 78500
L99070 78390
L99070 78250
L99100 78130
L99130 78080
L99160 78050
L99210 78020
" />
<path d="M99770 78020
L99830 78020
L99890 78050
L99910 78080
L99940 78130
L99970 78250
L99970 78390
L99940 78500
L99910 78560
L99890 78580
L99830 78610
L99770 78610
L99720 78580
L99690 78560
L99660 78500
L99630 78390
L99630 78250
L99660 78130
L99690 78080
L99720 78050
L99770 78020
" />
<path d="M100530 78610
L100190 78610
" />
<path d="M100360 78610
L100360 78020
L100310 78110
L100250 78160
L100190 78190
" />
</g>
<g style="fill:#840000; fill-opacity:0.0; 
stroke:#840000; stroke-width:100; stroke-opacity:1; 
stroke-linecap:round; stroke-linejoin:round;">
</g>
<g style="fill:#840000; fill-opacity:0.0; 
stroke:#840000; stroke-width:60; stroke-opacity:1; 
stroke-linecap:round; stroke-linejoin:round;">
<text x="63150" y="78640"
textLength="6420" font-size="780" lengthAdjust="spacingAndGlyphs"
text-anchor="start" opacity="0">Size: USLetter</text>
<path d="M63290 78580
L63370 78610
L63510 78610
L63570 78580
L63600 78560
L63620 78500
L63620 78440
L63600 78390
L63570 78360
L63510 78330
L63400 78300
L63340 78270
L63320 78250
L63290 78190
L63290 78130
L63320 78080
L63340 78050
L63400 78020
L63540 78020
L63620 78050
" />
<path d="M63880 78610
L63880 78220
" />
<path d="M63880 78020
L63850 78050
L63880 78080
L63910 78050
L63880 78020
L63880 78080
" />
<path d="M64100 78220
L64410 78220
L64100 78610
L64410 78610
" />
<path d="M64860 78580
L64800 78610
L64690 78610
L64640 78580
L64610 78530
L64610 78300
L64640 78250
L64690 78220
L64800 78220
L64860 78250
L64890 78300
L64890 78360
L64610 78420
" />
<path d="M65140 78560
L65170 78580
L65140 78610
L65110 78580
L65140 78560
L65140 78610
" />
<path d="M65140 78250
L65170 78270
L65140 78300
L65110 78270
L65140 78250
L65140 78300
" />
<path d="M65870 78020
L65870 78500
L65900 78560
L65930 78580
L65980 78610
L66100 78610
L66150 78580
L66180 78560
L66210 78500
L66210 78020
" />
<path d="M66460 78580
L66550 78610
L66690 78610
L66740 78580
L66770 78560
L66800 78500
L66800 78440
L66770 78390
L66740 78360
L66690 78330
L66570 78300
L66520 78270
L66490 78250
L66460 78190
L66460 78130
L66490 78080
L66520 78050
L66570 78020
L66720 78020
L66800 78050
" />
<path d="M67330 78610
L67050 78610
L67050 78020
" />
<path d="M67750 78580
L67700 78610
L67590 78610
L67530 78580
L67500 78530
L67500 78300
L67530 78250
L67590 78220
L67700 78220
L67750 78250
L67780 78300
L67780 78360
L67500 78420
" />
<path d="M67950 78220
L68180 78220
" />
<path d="M68040 78020
L68040 78530
L68060 78580
L68120 78610
L68180 78610
" />
<path d="M68290 78220
L68510 78220
" />
<path d="M68370 78020
L68370 78530
L68400 78580
L68460 78610
L68510 78610
" />
<path d="M68930 78580
L68880 78610
L68770 78610
L68710 78580
L68680 78530
L68680 78300
L68710 78250
L68770 78220
L68880 78220
L68930 78250
L68960 78300
L68960 78360
L68680 78420
" />
<path d="M69220 78610
L69220 78220
" />
<path d="M69220 78330
L69240 78270
L69270 78250
L69330 78220
L69380 78220
" />
</g>
<g style="fill:#840000; fill-opacity:0.0; 
stroke:#840000; stroke-width:100; stroke-opacity:1; 
stroke-linecap:round; stroke-linejoin:round;">
</g>
<g style="fill:#840000; fill-opacity:0.0; 
stroke:#840000; stroke-width:60; stroke-opacity:1; 
stroke-linecap:round; stroke-linejoin:round;">
<text x="96610" y="79740"
textLength="3350" font-size="780" lengthAdjust="spacingAndGlyphs"
text-anchor="start" opacity="0">Id: 1/1</text>
<path d="M96780 79710
L96780 79120
" />
<path d="M97310 79710
L97310 79120
" />
<path d="M97310 79680
L97250 79710
L97140 79710
L97080 79680
L97060 79660
L97030 79600
L97030 79430
L97060 79370
L97080 79350
L97140 79320
L97250 79320
L97310 79350
" />
<path d="M97590 79660
L97620 79680
L97590 79710
L97560 79680
L97590 79660
L97590 79710
" />
<path d="M97590 79350
L97620 79370
L97590 79400
L97560 79370
L97590 79350
L97590 79400
" />
<path d="M98630 79710
L98290 79710
" />
<path d="M98460 79710
L98460 79120
L98410 79210
L98350 79260
L98290 79290
" />
<path d="M99300 79090
L98800 79850
" />
<path d="M99810 79710
L99470 79710
" />
<path d="M99640 79710
L99640 79120
L99590 79210
L99530 79260
L99470 79290
" />
</g>
<g style="fill:#840000; fill-opacity:0.0; 
stroke:#840000; stroke-width:100; stroke-opacity:1; 
stroke-linecap:round; stroke-linejoin:round;">
</g>
<g style="fill:#840000; fill-opacity:0.0; 
stroke:#840000; stroke-width:60; stroke-opacity:1; 
stroke-linecap:round; stroke-linejoin:round;">
<path d="M62760 76140
L105280 76140
" />
</g>
<g style="fill:#840000; fill-opacity:0.0; 
stroke:#840000; stroke-width:100; stroke-opacity:1; 
stroke-linecap:round; stroke-linejoin:round;">
</g>
<g style="fill:#840000; fill-opacity:0.0; 
stroke:#840000; stroke-width:160; stroke-opacity:1; 
stroke-linecap:round; stroke-linejoin:round;">
<text x="63150" y="77240"
textLength="28320" font-size="1050" lengthAdjust="spacingAndGlyphs"
text-anchor="start" opacity="0">Title: DS1x00 SOIC8 to DS1000 DIP14 adapter</text>
<path d="M63430 76410
L63880 76410
" />
<path d="M63550 77200
L63650 76410
" />
<path d="M64040 77200
L64110 76680
" />
<path d="M64140 76410
L64100 76450
L64130 76490
L64180 76450
L64140 76410
L64130 76490
" />
<path d="M64370 76680
L64670 76680
" />
<path d="M64520 76410
L64430 77090
L64460 77160
L64530 77200
L64610 77200
" />
<path d="M64980 77200
L64910 77160
L64890 77090
L64970 76410
" />
<path d="M65590 77160
L65510 77200
L65360 77200
L65290 77160
L65260 77090
L65300 76790
L65350 76710
L65430 76680
L65580 76680
L65650 76710
L65680 76790
L65670 76860
L65280 76940
" />
<path d="M65970 77130
L66000 77160
L65960 77200
L65930 77160
L65970 77130
L65960 77200
" />
<path d="M66020 76710
L66060 76750
L66010 76790
L65980 76750
L66020 76710
L66010 76790
" />
<path d="M66940 77200
L67040 76410
L67230 76410
L67340 76450
L67400 76530
L67430 76600
L67450 76750
L67430 76860
L67380 77010
L67330 77090
L67250 77160
L67130 77200
L66940 77200
" />
<path d="M67700 77160
L67810 77200
L67990 77200
L68070 77160
L68120 77130
L68160 77050
L68170 76980
L68140 76900
L68110 76860
L68040 76830
L67890 76790
L67820 76750
L67790 76710
L67760 76640
L67770 76560
L67820 76490
L67860 76450
L67940 76410
L68130 76410
L68240 76450
" />
<path d="M68900 77200
L68450 77200
" />
<path d="M68670 77200
L68770 76410
L68680 76530
L68600 76600
L68520 76640
" />
<path d="M69160 77200
L69640 76680
" />
<path d="M69230 76680
L69570 77200
" />
<path d="M70120 76410
L70200 76410
L70270 76450
L70300 76490
L70330 76560
L70350 76710
L70330 76900
L70270 77050
L70220 77130
L70180 77160
L70100 77200
L70030 77200
L69950 77160
L69920 77130
L69890 77050
L69870 76900
L69900 76710
L69950 76560
L70000 76490
L70040 76450
L70120 76410
" />
<path d="M70880 76410
L70950 76410
L71020 76450
L71050 76490
L71080 76560
L71100 76710
L71080 76900
L71020 77050
L70980 77130
L70930 77160
L70850 77200
L70780 77200
L70710 77160
L70670 77130
L70650 77050
L70630 76900
L70650 76710
L70710 76560
L70750 76490
L70800 76450
L70880 76410
" />
<path d="M71950 77160
L72060 77200
L72240 77200
L72320 77160
L72370 77130
L72410 77050
L72420 76980
L72400 76900
L72360 76860
L72290 76830
L72150 76790
L72080 76750
L72040 76710
L72010 76640
L72020 76560
L72070 76490
L72110 76450
L72190 76410
L72380 76410
L72490 76450
" />
<path d="M72980 76410
L73130 76410
L73200 76450
L73270 76530
L73290 76680
L73260 76940
L73200 77090
L73110 77160
L73030 77200
L72880 77200
L72810 77160
L72750 77090
L72730 76940
L72760 76680
L72820 76530
L72900 76450
L72980 76410
" />
<path d="M73560 77200
L73660 76410
" />
<path d="M74400 77130
L74360 77160
L74240 77200
L74160 77200
L74060 77160
L73990 77090
L73960 77010
L73940 76860
L73960 76750
L74010 76600
L74060 76530
L74140 76450
L74260 76410
L74340 76410
L74450 76450
L74480 76490
" />
<path d="M74900 76750
L74830 76710
L74790 76680
L74770 76600
L74770 76560
L74820 76490
L74860 76450
L74940 76410
L75090 76410
L75160 76450
L75190 76490
L75220 76560
L75220 76600
L75170 76680
L75130 76710
L75050 76750
L74900 76750
L74820 76790
L74770 76830
L74730 76900
L74710 77050
L74740 77130
L74770 77160
L74840 77200
L74990 77200
L75070 77160
L75110 77130
L75160 77050
L75180 76900
L75150 76830
L75120 76790
L75050 76750
" />
<path d="M76030 76680
L76340 76680
" />
<path d="M76180 76410
L76100 77090
L76120 77160
L76190 77200
L76270 77200
" />
<path d="M76650 77200
L76580 77160
L76540 77130
L76510 77050
L76540 76830
L76590 76750
L76630 76710
L76710 76680
L76820 76680
L76900 76710
L76930 76750
L76960 76830
L76930 77050
L76880 77130
L76840 77160
L76760 77200
L76650 77200
" />
<path d="M77850 77200
L77950 76410
L78140 76410
L78240 76450
L78310 76530
L78340 76600
L78360 76750
L78340 76860
L78290 77010
L78240 77090
L78160 77160
L78040 77200
L77850 77200
" />
<path d="M78610 77160
L78720 77200
L78900 77200
L78980 77160
L79030 77130
L79070 77050
L79080 76980
L79050 76900
L79020 76860
L78950 76830
L78800 76790
L78730 76750
L78700 76710
L78670 76640
L78680 76560
L78730 76490
L78770 76450
L78850 76410
L79040 76410
L79150 76450
" />
<path d="M79810 77200
L79350 77200
" />
<path d="M79580 77200
L79680 76410
L79590 76530
L79510 76600
L79430 76640
" />
<path d="M80390 76410
L80470 76410
L80540 76450
L80570 76490
L80600 76560
L80620 76710
L80600 76900
L80540 77050
L80490 77130
L80450 77160
L80370 77200
L80300 77200
L80220 77160
L80190 77130
L80160 77050
L80140 76900
L80170 76710
L80220 76560
L80270 76490
L80310 76450
L80390 76410
" />
<path d="M81150 76410
L81220 76410
L81290 76450
L81320 76490
L81350 76560
L81370 76710
L81350 76900
L81290 77050
L81250 77130
L81200 77160
L81120 77200
L81050 77200
L80980 77160
L80940 77130
L80920 77050
L80900 76900
L80920 76710
L80980 76560
L81020 76490
L81070 76450
L81150 76410
" />
<path d="M81900 76410
L81970 76410
L82040 76450
L82080 76490
L82110 76560
L82120 76710
L82100 76900
L82040 77050
L82000 77130
L81960 77160
L81880 77200
L81800 77200
L81730 77160
L81700 77130
L81670 77050
L81650 76900
L81670 76710
L81730 76560
L81780 76490
L81820 76450
L81900 76410
" />
<path d="M83000 77200
L83100 76410
L83290 76410
L83400 76450
L83460 76530
L83490 76600
L83510 76750
L83500 76860
L83440 77010
L83390 77090
L83310 77160
L83190 77200
L83000 77200
" />
<path d="M83790 77200
L83890 76410
" />
<path d="M84170 77200
L84270 76410
L84570 76410
L84640 76450
L84670 76490
L84700 76560
L84690 76680
L84640 76750
L84600 76790
L84520 76830
L84220 76830
" />
<path d="M85370 77200
L84920 77200
" />
<path d="M85150 77200
L85250 76410
L85160 76530
L85070 76600
L84990 76640
" />
<path d="M86120 76680
L86050 77200
" />
<path d="M85970 76370
L85710 76940
L86200 76940
" />
<path d="M87410 77200
L87460 76790
L87430 76710
L87360 76680
L87210 76680
L87130 76710
" />
<path d="M87410 77160
L87330 77200
L87140 77200
L87070 77160
L87040 77090
L87050 77010
L87100 76940
L87180 76900
L87370 76900
L87450 76860
" />
<path d="M88120 77200
L88220 76410
" />
<path d="M88120 77160
L88040 77200
L87890 77200
L87820 77160
L87790 77130
L87760 77050
L87790 76830
L87840 76750
L87880 76710
L87960 76680
L88110 76680
L88180 76710
" />
<path d="M88830 77200
L88890 76790
L88860 76710
L88790 76680
L88640 76680
L88560 76710
" />
<path d="M88840 77160
L88760 77200
L88570 77200
L88500 77160
L88470 77090
L88480 77010
L88530 76940
L88610 76900
L88800 76900
L88880 76860
" />
<path d="M89280 76680
L89180 77470
" />
<path d="M89270 76710
L89350 76680
L89500 76680
L89570 76710
L89610 76750
L89630 76830
L89610 77050
L89560 77130
L89520 77160
L89440 77200
L89290 77200
L89220 77160
" />
<path d="M89880 76680
L90180 76680
" />
<path d="M90020 76410
L89940 77090
L89970 77160
L90040 77200
L90110 77200
" />
<path d="M90680 77160
L90600 77200
L90450 77200
L90380 77160
L90350 77090
L90390 76790
L90440 76710
L90520 76680
L90670 76680
L90740 76710
L90770 76790
L90760 76860
L90370 76940
" />
<path d="M91050 77200
L91120 76680
" />
<path d="M91100 76830
L91150 76750
L91190 76710
L91270 76680
L91350 76680
" />
</g>
<g style="fill:#840000; fill-opacity:0.0; 
stroke:#840000; stroke-width:100; stroke-opacity:1; 
stroke-linecap:round; stroke-linejoin:round;">
</g>
<g style="fill:#840000; fill-opacity:0.0; 
stroke:#840000; stroke-width:60; stroke-opacity:1; 
stroke-linecap:round; stroke-linejoin:round;">
<text x="63150" y="75720"
textLength="10770" font-size="780" lengthAdjust="spacingAndGlyphs"
text-anchor="start" opacity="0">File: DS1000_DIP14.sch</text>
<path d="M63510 75380
L63320 75380
" />
<path d="M63320 75690
L63320 75100
L63600 75100
" />
<path d="M63820 75690
L63820 75300
" />
<path d="M63820 75100
L63790 75130
L63820 75160
L63850 75130
L63820 75100
L63820 75160
" />
<path d="M64190 75690
L64130 75660
L64100 75610
L64100 75100
" />
<path d="M64640 75660
L64580 75690
L64470 75690
L64410 75660
L64380 75610
L64380 75380
L64410 75330
L64470 75300
L64580 75300
L64640 75330
L64660 75380
L64660 75440
L64380 75500
" />
<path d="M64920 75640
L64950 75660
L64920 75690
L64890 75660
L64920 75640
L64920 75690
" />
<path d="M64920 75330
L64950 75350
L64920 75380
L64890 75350
L64920 75330
L64920 75380
" />
<path d="M65650 75690
L65650 75100
L65790 75100
L65870 75130
L65930 75190
L65960 75240
L65980 75350
L65980 75440
L65960 75550
L65930 75610
L65870 75660
L65790 75690
L65650 75690
" />
<path d="M66210 75660
L66290 75690
L66430 75690
L66490 75660
L66520 75640
L66550 75580
L66550 75520
L66520 75470
L66490 75440
L66430 75410
L66320 75380
L66270 75350
L66240 75330
L66210 75270
L66210 75210
L66240 75160
L66270 75130
L66320 75100
L66460 75100
L66550 75130
" />
<path d="M67110 75690
L66770 75690
" />
<path d="M66940 75690
L66940 75100
L66880 75190
L66830 75240
L66770 75270
" />
<path d="M67470 75100
L67530 75100
L67590 75130
L67610 75160
L67640 75210
L67670 75330
L67670 75470
L67640 75580
L67610 75640
L67590 75660
L67530 75690
L67470 75690
L67420 75660
L67390 75640
L67360 75580
L67330 75470
L67330 75330
L67360 75210
L67390 75160
L67420 75130
L67470 75100
" />
<path d="M68040 75100
L68090 75100
L68150 75130
L68180 75160
L68200 75210
L68230 75330
L68230 75470
L68200 75580
L68180 75640
L68150 75660
L68090 75690
L68040 75690
L67980 75660
L67950 75640
L67920 75580
L67900 75470
L67900 75330
L67920 75210
L67950 75160
L67980 75130
L68040 75100
" />
<path d="M68600 75100
L68650 75100
L68710 75130
L68740 75160
L68770 75210
L68790 75330
L68790 75470
L68770 75580
L68740 75640
L68710 75660
L68650 75690
L68600 75690
L68540 75660
L68510 75640
L68490 75580
L68460 75470
L68460 75330
L68490 75210
L68510 75160
L68540 75130
L68600 75100
" />
<path d="M68910 75750
L69360 75750
" />
<path d="M69500 75690
L69500 75100
L69640 75100
L69720 75130
L69780 75190
L69810 75240
L69830 75350
L69830 75440
L69810 75550
L69780 75610
L69720 75660
L69640 75690
L69500 75690
" />
<path d="M70090 75690
L70090 75100
" />
<path d="M70370 75690
L70370 75100
L70590 75100
L70650 75130
L70680 75160
L70700 75210
L70700 75300
L70680 75350
L70650 75380
L70590 75410
L70370 75410
" />
<path d="M71270 75690
L70930 75690
" />
<path d="M71100 75690
L71100 75100
L71040 75190
L70990 75240
L70930 75270
" />
<path d="M71770 75300
L71770 75690
" />
<path d="M71630 75070
L71490 75500
L71860 75500
" />
<path d="M72080 75640
L72110 75660
L72080 75690
L72050 75660
L72080 75640
L72080 75690
" />
<path d="M72330 75660
L72390 75690
L72500 75690
L72560 75660
L72590 75610
L72590 75580
L72560 75520
L72500 75500
L72420 75500
L72360 75470
L72330 75410
L72330 75380
L72360 75330
L72420 75300
L72500 75300
L72560 75330
" />
<path d="M73090 75660
L73040 75690
L72920 75690
L72870 75660
L72840 75640
L72810 75580
L72810 75410
L72840 75350
L72870 75330
L72920 75300
L73040 75300
L73090 75330
" />
<path d="M73350 75690
L73350 75100
" />
<path d="M73600 75690
L73600 75380
L73570 75330
L73510 75300
L73430 75300
L73370 75330
L73350 75350
" />
</g>
<g style="fill:#840000; fill-opacity:0.0; 
stroke:#840000; stroke-width:100; stroke-opacity:1; 
stroke-linecap:round; stroke-linejoin:round;">
</g>
<g style="fill:#840000; fill-opacity:0.0; 
stroke:#840000; stroke-width:60; stroke-opacity:1; 
stroke-linecap:round; stroke-linejoin:round;">
<path d="M62760 73780
L105280 73780
" />
</g>
<g style="fill:#840000; fill-opacity:0.0; 
stroke:#840000; stroke-width:100; stroke-opacity:1; 
stroke-linecap:round; stroke-linejoin:round;">
</g>
<g style="fill:#840000; fill-opacity:0.0; 
stroke:#840000; stroke-width:60; stroke-opacity:1; 
stroke-linecap:round; stroke-linejoin:round;">
<text x="63150" y="74660"
textLength="3850" font-size="780" lengthAdjust="spacingAndGlyphs"
text-anchor="start" opacity="0">Sheet: /</text>
<path d="M63290 74600
L63370 74630
L63510 74630
L63570 74600
L63600 74580
L63620 74520
L63620 74460
L63600 74410
L63570 74380
L63510 74350
L63400 74320
L63340 74290
L63320 74270
L63290 74210
L63290 74150
L63320 74100
L63340 74070
L63400 74040
L63540 74040
L63620 74070
" />
<path d="M63880 74630
L63880 74040
" />
<path d="M64130 74630
L64130 74320
L64100 74270
L64050 74240
L63960 74240
L63910 74270
L63880 74290
" />
<path d="M64640 74600
L64580 74630
L64470 74630
L64410 74600
L64380 74550
L64380 74320
L64410 74270
L64470 74240
L64580 74240
L64640 74270
L64660 74320
L64660 74380
L64380 74440
" />
<path d="M65140 74600
L65090 74630
L64970 74630
L64920 74600
L64890 74550
L64890 74320
L64920 74270
L64970 74240
L65090 74240
L65140 74270
L65170 74320
L65170 74380
L64890 74440
" />
<path d="M65340 74240
L65560 74240
" />
<path d="M65420 74040
L65420 74550
L65450 74600
L65510 74630
L65560 74630
" />
<path d="M65760 74580
L65790 74600
L65760 74630
L65730 74600
L65760 74580
L65760 74630
" />
<path d="M65760 74270
L65790 74290
L65760 74320
L65730 74290
L65760 74270
L65760 74320
" />
<path d="M66910 74010
L66410 74770
" />
</g>
<g style="fill:#840000; fill-opacity:0.0; 
stroke:#840000; stroke-width:100; stroke-opacity:1; 
stroke-linecap:round; stroke-linejoin:round;">
</g>
<g style="fill:#840000; fill-opacity:0.0; 
stroke:#840000; stroke-width:120; stroke-opacity:1; 
stroke-linecap:round; stroke-linejoin:round;">
<text x="63150" y="73480"
textLength="18430" font-size="780" lengthAdjust="spacingAndGlyphs"
text-anchor="start" opacity="0">Brian. K. White - b.kenyon.w@gmail.com</text>
<path d="M63560 73140
L63640 73170
L63670 73200
L63700 73260
L63700 73340
L63670 73400
L63640 73420
L63590 73450
L63360 73450
L63360 72860
L63560 72860
L63620 72890
L63640 72920
L63670 72970
L63670 73030
L63640 73090
L63620 73110
L63560 73140
L63360 73140
" />
<path d="M63950 73450
L63950 73060
" />
<path d="M63950 73170
L63980 73110
L64010 73090
L64070 73060
L64120 73060
" />
<path d="M64320 73450
L64320 73060
" />
<path d="M64320 72860
L64290 72890
L64320 72920
L64350 72890
L64320 72860
L64320 72920
" />
<path d="M64850 73450
L64850 73140
L64820 73090
L64770 73060
L64660 73060
L64600 73090
" />
<path d="M64850 73420
L64800 73450
L64660 73450
L64600 73420
L64570 73370
L64570 73310
L64600 73260
L64660 73230
L64800 73230
L64850 73200
" />
<path d="M65130 73060
L65130 73450
" />
<path d="M65130 73110
L65160 73090
L65220 73060
L65300 73060
L65360 73090
L65390 73140
L65390 73450
" />
<path d="M65670 73400
L65700 73420
L65670 73450
L65640 73420
L65670 73400
L65670 73450
" />
<path d="M66400 73450
L66400 72860
" />
<path d="M66730 73450
L66480 73110
" />
<path d="M66730 72860
L66400 73200
" />
<path d="M66990 73400
L67020 73420
L66990 73450
L66960 73420
L66990 73400
L66990 73450
" />
<path d="M67660 72860
L67800 73450
L67910 73030
L68030 73450
L68170 72860
" />
<path d="M68390 73450
L68390 72860
" />
<path d="M68650 73450
L68650 73140
L68620 73090
L68560 73060
L68480 73060
L68420 73090
L68390 73110
" />
<path d="M68930 73450
L68930 73060
" />
<path d="M68930 72860
L68900 72890
L68930 72920
L68950 72890
L68930 72860
L68930 72920
" />
<path d="M69120 73060
L69350 73060
" />
<path d="M69210 72860
L69210 73370
L69240 73420
L69290 73450
L69350 73450
" />
<path d="M69770 73420
L69710 73450
L69600 73450
L69540 73420
L69520 73370
L69520 73140
L69540 73090
L69600 73060
L69710 73060
L69770 73090
L69800 73140
L69800 73200
L69520 73260
" />
<path d="M70500 73230
L70950 73230
" />
<path d="M71680 73450
L71680 72860
" />
<path d="M71680 73090
L71740 73060
L71850 73060
L71900 73090
L71930 73110
L71960 73170
L71960 73340
L71930 73400
L71900 73420
L71850 73450
L71740 73450
L71680 73420
" />
<path d="M72210 73400
L72240 73420
L72210 73450
L72190 73420
L72210 73400
L72210 73450
" />
<path d="M72490 73450
L72490 72860
" />
<path d="M72550 73230
L72720 73450
" />
<path d="M72720 73060
L72490 73280
" />
<path d="M73200 73420
L73140 73450
L73030 73450
L72970 73420
L72940 73370
L72940 73140
L72970 73090
L73030 73060
L73140 73060
L73200 73090
L73220 73140
L73220 73200
L72940 73260
" />
<path d="M73480 73060
L73480 73450
" />
<path d="M73480 73110
L73510 73090
L73560 73060
L73650 73060
L73700 73090
L73730 73140
L73730 73450
" />
<path d="M73960 73060
L74100 73450
" />
<path d="M74240 73060
L74100 73450
L74040 73590
L74010 73620
L73960 73650
" />
<path d="M74550 73450
L74490 73420
L74460 73400
L74430 73340
L74430 73170
L74460 73110
L74490 73090
L74550 73060
L74630 73060
L74690 73090
L74710 73110
L74740 73170
L74740 73340
L74710 73400
L74690 73420
L74630 73450
L74550 73450
" />
<path d="M74990 73060
L74990 73450
" />
<path d="M74990 73110
L75020 73090
L75080 73060
L75160 73060
L75220 73090
L75250 73140
L75250 73450
" />
<path d="M75530 73400
L75560 73420
L75530 73450
L75500 73420
L75530 73400
L75530 73450
" />
<path d="M75750 73060
L75870 73450
L75980 73170
L76090 73450
L76200 73060
" />
<path d="M76790 73170
L76760 73140
L76710 73110
L76650 73110
L76600 73140
L76570 73170
L76540 73230
L76540 73280
L76570 73340
L76600 73370
L76650 73400
L76710 73400
L76760 73370
L76790 73340
" />
<path d="M76790 73110
L76790 73340
L76820 73370
L76850 73370
L76910 73340
L76930 73280
L76930 73140
L76880 73060
L76790 73000
L76680 72970
L76570 73000
L76480 73060
L76430 73140
L76400 73260
L76430 73370
L76480 73450
L76570 73510
L76680 73540
L76790 73510
L76880 73450
" />
<path d="M77440 73060
L77440 73540
L77410 73590
L77380 73620
L77330 73650
L77240 73650
L77190 73620
" />
<path d="M77440 73420
L77380 73450
L77270 73450
L77210 73420
L77190 73400
L77160 73340
L77160 73170
L77190 73110
L77210 73090
L77270 73060
L77380 73060
L77440 73090
" />
<path d="M77720 73450
L77720 73060
" />
<path d="M77720 73110
L77750 73090
L77800 73060
L77890 73060
L77940 73090
L77970 73140
L77970 73450
" />
<path d="M77970 73140
L78000 73090
L78060 73060
L78140 73060
L78200 73090
L78230 73140
L78230 73450
" />
<path d="M78760 73450
L78760 73140
L78730 73090
L78680 73060
L78560 73060
L78510 73090
" />
<path d="M78760 73420
L78700 73450
L78560 73450
L78510 73420
L78480 73370
L78480 73310
L78510 73260
L78560 73230
L78700 73230
L78760 73200
" />
<path d="M79040 73450
L79040 73060
" />
<path d="M79040 72860
L79010 72890
L79040 72920
L79070 72890
L79040 72860
L79040 72920
" />
<path d="M79410 73450
L79350 73420
L79320 73370
L79320 72860
" />
<path d="M79630 73400
L79660 73420
L79630 73450
L79600 73420
L79630 73400
L79630 73450
" />
<path d="M80160 73420
L80110 73450
L80000 73450
L79940 73420
L79910 73400
L79880 73340
L79880 73170
L79910 73110
L79940 73090
L80000 73060
L80110 73060
L80160 73090
" />
<path d="M80500 73450
L80450 73420
L80420 73400
L80390 73340
L80390 73170
L80420 73110
L80450 73090
L80500 73060
L80590 73060
L80640 73090
L80670 73110
L80700 73170
L80700 73340
L80670 73400
L80640 73420
L80590 73450
L80500 73450
" />
<path d="M80950 73450
L80950 73060
" />
<path d="M80950 73110
L80980 73090
L81040 73060
L81120 73060
L81180 73090
L81200 73140
L81200 73450
" />
<path d="M81200 73140
L81230 73090
L81290 73060
L81370 73060
L81430 73090
L81460 73140
L81460 73450
" />
</g>
<g style="fill:#840000; fill-opacity:0.0; 
stroke:#840000; stroke-width:100; stroke-opacity:1; 
stroke-linecap:round; stroke-linejoin:round;">
</g>
<g style="fill:#840000; fill-opacity:0.0; 
stroke:#840000; stroke-width:60; stroke-opacity:1; 
stroke-linecap:round; stroke-linejoin:round;">
<path d="M70630 77720
L70630 78900
" />
</g>
<g style="fill:#840000; fill-opacity:0.0; 
stroke:#840000; stroke-width:100; stroke-opacity:1; 
stroke-linecap:round; stroke-linejoin:round;">
</g>
<g style="fill:#840000; fill-opacity:0.0; 
stroke:#840000; stroke-width:60; stroke-opacity:1; 
stroke-linecap:round; stroke-linejoin:round;">
<path d="M95830 77720
L95830 80280
" />
</g>
<g style="fill:#840000; fill-opacity:0.0; 
stroke:#840000; stroke-width:0; stroke-opacity:1; 
stroke-linecap:round; stroke-linejoin:round;">
<g >
</g>
<g style="fill:#840000; fill-opacity:0.0; 
stroke:#840000; stroke-width:60; stroke-opacity:1; 
stroke-linecap:round; stroke-linejoin:round;">
<rect x="61000" y="29500" width="5000" height="5000" rx="0" />
<path d="M61000 30000
L60000 30000
" />
</g>
<g style="fill:#008484; fill-opacity:0.0; 
stroke:#008484; stroke-width:60; stroke-opacity:1; 
stroke-linecap:round; stroke-linejoin:round;">
<text x="61400" y="30250"
textLength="920" font-size="660" lengthAdjust="spacingAndGlyphs"
text-anchor="start" opacity="0">IN</text>
<path d="M61540 30220
L61540 29720
" />
<path d="M61780 30220
L61780 29720
L62070 30220
L62070 29720
" />
</g>
<g style="fill:#840000; fill-opacity:0.0; 
stroke:#840000; stroke-width:60; stroke-opacity:1; 
stroke-linecap:round; stroke-linejoin:round;">
<text x="60500" y="29900"
textLength="540" font-size="660" lengthAdjust="spacingAndGlyphs"
text-anchor="middle" opacity="0">1</text>
<path d="M60640 29870
L60350 29870
" />
<path d="M60500 29870
L60500 29370
L60450 29440
L60400 29490
L60350 29510
" />
<path d="M66000 31000
L67000 31000
" />
</g>
<g style="fill:#008484; fill-opacity:0.0; 
stroke:#008484; stroke-width:60; stroke-opacity:1; 
stroke-linecap:round; stroke-linejoin:round;">
<text x="65600" y="31250"
textLength="1850" font-size="660" lengthAdjust="spacingAndGlyphs"
text-anchor="end" opacity="0">TAP2</text>
<path d="M63830 30720
L64110 30720
" />
<path d="M63970 31220
L63970 30720
" />
<path d="M64260 31080
L64490 31080
" />
<path d="M64210 31220
L64370 30720
L64540 31220
" />
<path d="M64710 31220
L64710 30720
L64900 30720
L64950 30750
L64970 30770
L64990 30820
L64990 30890
L64970 30940
L64950 30960
L64900 30980
L64710 30980
" />
<path d="M65180 30770
L65210 30750
L65260 30720
L65370 30720
L65420 30750
L65450 30770
L65470 30820
L65470 30860
L65450 30940
L65160 31220
L65470 31220
" />
</g>
<g style="fill:#840000; fill-opacity:0.0; 
stroke:#840000; stroke-width:60; stroke-opacity:1; 
stroke-linecap:round; stroke-linejoin:round;">
<text x="66500" y="30900"
textLength="540" font-size="660" lengthAdjust="spacingAndGlyphs"
text-anchor="middle" opacity="0">2</text>
<path d="M66350 30420
L66380 30400
L66420 30370
L66540 30370
L66590 30400
L66610 30420
L66640 30470
L66640 30510
L66610 30590
L66330 30870
L66640 30870
" />
<path d="M66000 33000
L67000 33000
" />
</g>
<g style="fill:#008484; fill-opacity:0.0; 
stroke:#008484; stroke-width:60; stroke-opacity:1; 
stroke-linecap:round; stroke-linejoin:round;">
<text x="65600" y="33250"
textLength="1850" font-size="660" lengthAdjust="spacingAndGlyphs"
text-anchor="end" opacity="0">TAP4</text>
<path d="M63830 32720
L64110 32720
" />
<path d="M63970 33220
L63970 32720
" />
<path d="M64260 33080
L64490 33080
" />
<path d="M64210 33220
L64370 32720
L64540 33220
" />
<path d="M64710 33220
L64710 32720
L64900 32720
L64950 32750
L64970 32770
L64990 32820
L64990 32890
L64970 32940
L64950 32960
L64900 32980
L64710 32980
" />
<path d="M65420 32890
L65420 33220
" />
<path d="M65300 32700
L65180 33050
L65490 33050
" />
</g>
<g style="fill:#840000; fill-opacity:0.0; 
stroke:#840000; stroke-width:60; stroke-opacity:1; 
stroke-linecap:round; stroke-linejoin:round;">
<text x="66500" y="32900"
textLength="540" font-size="660" lengthAdjust="spacingAndGlyphs"
text-anchor="middle" opacity="0">3</text>
<path d="M66330 32370
L66640 32370
L66470 32560
L66540 32560
L66590 32590
L66610 32610
L66640 32660
L66640 32780
L66610 32820
L66590 32850
L66540 32870
L66400 32870
L66350 32850
L66330 32820
" />
<path d="M63500 34500
L63500 35500
" />
</g>
<g style="fill:#008484; fill-opacity:0.0; 
stroke:#008484; stroke-width:60; stroke-opacity:1; 
stroke-linecap:round; stroke-linejoin:round;">
<g transform="rotate(-90 63500 34100)">
<text x="63500" y="34350"
textLength="1580" font-size="660" lengthAdjust="spacingAndGlyphs"
text-anchor="start" opacity="0">GND</text>
</g>
<path d="M63250 33680
L63220 33730
L63220 33800
L63250 33870
L63290 33920
L63340 33950
L63440 33970
L63510 33970
L63600 33950
L63650 33920
L63700 33870
L63720 33800
L63720 33760
L63700 33680
L63670 33660
L63510 33660
L63510 33760
" />
<path d="M63720 33450
L63220 33450
L63720 33160
L63220 33160
" />
<path d="M63720 32920
L63220 32920
L63220 32800
L63250 32730
L63290 32680
L63340 32660
L63440 32640
L63510 32640
L63600 32660
L63650 32680
L63700 32730
L63720 32800
L63720 32920
" />
</g>
<g style="fill:#840000; fill-opacity:0.0; 
stroke:#840000; stroke-width:60; stroke-opacity:1; 
stroke-linecap:round; stroke-linejoin:round;">
<g transform="rotate(-90 63400 35000)">
<text x="63400" y="35000"
textLength="540" font-size="660" lengthAdjust="spacingAndGlyphs"
text-anchor="middle" opacity="0">4</text>
</g>
<path d="M63040 34900
L63370 34900
" />
<path d="M62850 35020
L63200 35140
L63200 34830
" />
<path d="M66000 34000
L67000 34000
" />
</g>
<g style="fill:#008484; fill-opacity:0.0; 
stroke:#008484; stroke-width:60; stroke-opacity:1; 
stroke-linecap:round; stroke-linejoin:round;">
<text x="65600" y="34250"
textLength="1850" font-size="660" lengthAdjust="spacingAndGlyphs"
text-anchor="end" opacity="0">TAP5</text>
<path d="M63830 33720
L64110 33720
" />
<path d="M63970 34220
L63970 33720
" />
<path d="M64260 34080
L64490 34080
" />
<path d="M64210 34220
L64370 33720
L64540 34220
" />
<path d="M64710 34220
L64710 33720
L64900 33720
L64950 33750
L64970 33770
L64990 33820
L64990 33890
L64970 33940
L64950 33960
L64900 33980
L64710 33980
" />
<path d="M65450 33720
L65210 33720
L65180 33960
L65210 33940
L65260 33910
L65370 33910
L65420 33940
L65450 33960
L65470 34010
L65470 34130
L65450 34170
L65420 34200
L65370 34220
L65260 34220
L65210 34200
L65180 34170
" />
</g>
<g style="fill:#840000; fill-opacity:0.0; 
stroke:#840000; stroke-width:60; stroke-opacity:1; 
stroke-linecap:round; stroke-linejoin:round;">
<text x="66500" y="33900"
textLength="540" font-size="660" lengthAdjust="spacingAndGlyphs"
text-anchor="middle" opacity="0">5</text>
<path d="M66610 33370
L66380 33370
L66350 33610
L66380 33590
L66420 33560
L66540 33560
L66590 33590
L66610 33610
L66640 33660
L66640 33780
L66610 33820
L66590 33850
L66540 33870
L66420 33870
L66380 33850
L66350 33820
" />
<path d="M66000 32000
L67000 32000
" />
</g>
<g style="fill:#008484; fill-opacity:0.0; 
stroke:#008484; stroke-width:60; stroke-opacity:1; 
stroke-linecap:round; stroke-linejoin:round;">
<text x="65600" y="32250"
textLength="1850" font-size="660" lengthAdjust="spacingAndGlyphs"
text-anchor="end" opacity="0">TAP3</text>
<path d="M63830 31720
L64110 31720
" />
<path d="M63970 32220
L63970 31720
" />
<path d="M64260 32080
L64490 32080
" />
<path d="M64210 32220
L64370 31720
L64540 32220
" />
<path d="M64710 32220
L64710 31720
L64900 31720
L64950 31750
L64970 31770
L64990 31820
L64990 31890
L64970 31940
L64950 31960
L64900 31980
L64710 31980
" />
<path d="M65160 31720
L65470 31720
L65300 31910
L65370 31910
L65420 31940
L65450 31960
L65470 32010
L65470 32130
L65450 32170
L65420 32200
L65370 32220
L65230 32220
L65180 32200
L65160 32170
" />
</g>
<g style="fill:#840000; fill-opacity:0.0; 
stroke:#840000; stroke-width:60; stroke-opacity:1; 
stroke-linecap:round; stroke-linejoin:round;">
<text x="66500" y="31900"
textLength="540" font-size="660" lengthAdjust="spacingAndGlyphs"
text-anchor="middle" opacity="0">6</text>
<path d="M66590 31370
L66500 31370
L66450 31400
L66420 31420
L66380 31490
L66350 31590
L66350 31780
L66380 31820
L66400 31850
L66450 31870
L66540 31870
L66590 31850
L66610 31820
L66640 31780
L66640 31660
L66610 31610
L66590 31590
L66540 31560
L66450 31560
L66400 31590
L66380 31610
L66350 31660
" />
<path d="M66000 30000
L67000 30000
" />
</g>
<g style="fill:#008484; fill-opacity:0.0; 
stroke:#008484; stroke-width:60; stroke-opacity:1; 
stroke-linecap:round; stroke-linejoin:round;">
<text x="65600" y="30250"
textLength="1850" font-size="660" lengthAdjust="spacingAndGlyphs"
text-anchor="end" opacity="0">TAP1</text>
<path d="M63830 29720
L64110 29720
" />
<path d="M63970 30220
L63970 29720
" />
<path d="M64260 30080
L64490 30080
" />
<path d="M64210 30220
L64370 29720
L64540 30220
" />
<path d="M64710 30220
L64710 29720
L64900 29720
L64950 29750
L64970 29770
L64990 29820
L64990 29890
L64970 29940
L64950 29960
L64900 29980
L64710 29980
" />
<path d="M65470 30220
L65180 30220
" />
<path d="M65330 30220
L65330 29720
L65280 29790
L65230 29840
L65180 29860
" />
</g>
<g style="fill:#840000; fill-opacity:0.0; 
stroke:#840000; stroke-width:60; stroke-opacity:1; 
stroke-linecap:round; stroke-linejoin:round;">
<text x="66500" y="29900"
textLength="540" font-size="660" lengthAdjust="spacingAndGlyphs"
text-anchor="middle" opacity="0">7</text>
<path d="M66330 29370
L66660 29370
L66450 29870
" />
<path d="M63500 29500
L63500 28500
" />
</g>
<g style="fill:#008484; fill-opacity:0.0; 
stroke:#008484; stroke-width:60; stroke-opacity:1; 
stroke-linecap:round; stroke-linejoin:round;">
<g transform="rotate(-90 63500 29900)">
<text x="63500" y="30150"
textLength="1490" font-size="660" lengthAdjust="spacingAndGlyphs"
text-anchor="end" opacity="0">VCC</text>
</g>
<path d="M63220 31310
L63720 31140
L63220 30970
" />
<path d="M63670 30520
L63700 30540
L63720 30620
L63720 30660
L63700 30730
L63650 30780
L63600 30810
L63510 30830
L63440 30830
L63340 30810
L63290 30780
L63250 30730
L63220 30660
L63220 30620
L63250 30540
L63270 30520
" />
<path d="M63670 30020
L63700 30040
L63720 30120
L63720 30160
L63700 30230
L63650 30280
L63600 30310
L63510 30330
L63440 30330
L63340 30310
L63290 30280
L63250 30230
L63220 30160
L63220 30120
L63250 30040
L63270 30020
" />
</g>
<g style="fill:#840000; fill-opacity:0.0; 
stroke:#840000; stroke-width:60; stroke-opacity:1; 
stroke-linecap:round; stroke-linejoin:round;">
<g transform="rotate(-90 63400 29000)">
<text x="63400" y="29000"
textLength="540" font-size="660" lengthAdjust="spacingAndGlyphs"
text-anchor="middle" opacity="0">8</text>
</g>
<path d="M63090 29040
L63060 29090
L63040 29110
L62990 29140
L62970 29140
L62920 29110
L62900 29090
L62870 29040
L62870 28950
L62900 28900
L62920 28880
L62970 28850
L62990 28850
L63040 28880
L63060 28900
L63090 28950
L63090 29040
L63110 29090
L63130 29110
L63180 29140
L63280 29140
L63320 29110
L63350 29090
L63370 29040
L63370 28950
L63350 28900
L63320 28880
L63280 28850
L63180 28850
L63130 28880
L63110 28900
L63090 28950
" />
</g>
<g style="fill:#008484; fill-opacity:0.0; 
stroke:#008484; stroke-width:60; stroke-opacity:1; 
stroke-linecap:round; stroke-linejoin:round;">
<text x="66000" y="27470"
textLength="1060" font-size="660" lengthAdjust="spacingAndGlyphs"
text-anchor="middle" opacity="0">U2</text>
<path d="M65610 26940
L65610 27350
L65640 27390
L65660 27420
L65710 27440
L65800 27440
L65850 27420
L65880 27390
L65900 27350
L65900 26940
" />
<path d="M66110 26990
L66140 26970
L66190 26940
L66300 26940
L66350 26970
L66380 26990
L66400 27040
L66400 27080
L66380 27160
L66090 27440
L66400 27440
" />
<text x="66000" y="28270"
textLength="2940" font-size="660" lengthAdjust="spacingAndGlyphs"
text-anchor="middle" opacity="0">DS1100</text>
<path d="M64670 28240
L64670 27740
L64790 27740
L64860 27770
L64910 27810
L64940 27860
L64960 27960
L64960 28030
L64940 28120
L64910 28170
L64860 28220
L64790 28240
L64670 28240
" />
<path d="M65150 28220
L65220 28240
L65340 28240
L65390 28220
L65410 28190
L65440 28150
L65440 28100
L65410 28050
L65390 28030
L65340 28000
L65250 27980
L65200 27960
L65170 27930
L65150 27880
L65150 27840
L65170 27790
L65200 27770
L65250 27740
L65360 27740
L65440 27770
" />
<path d="M65910 28240
L65630 28240
" />
<path d="M65770 28240
L65770 27740
L65720 27810
L65670 27860
L65630 27880
" />
<path d="M66390 28240
L66100 28240
" />
<path d="M66250 28240
L66250 27740
L66200 27810
L66150 27860
L66100 27880
" />
<path d="M66700 27740
L66750 27740
L66790 27770
L66820 27790
L66840 27840
L66860 27930
L66860 28050
L66840 28150
L66820 28190
L66790 28220
L66750 28240
L66700 28240
L66650 28220
L66630 28190
L66600 28150
L66580 28050
L66580 27930
L66600 27840
L66630 27790
L66650 27770
L66700 27740
" />
<path d="M67170 27740
L67220 27740
L67270 27770
L67290 27790
L67320 27840
L67340 27930
L67340 28050
L67320 28150
L67290 28190
L67270 28220
L67220 28240
L67170 28240
L67130 28220
L67100 28190
L67080 28150
L67050 28050
L67050 27930
L67080 27840
L67100 27790
L67130 27770
L67170 27740
" />
</g>
</g>
<g style="fill:#008484; fill-opacity:0.0; 
stroke:#008484; stroke-width:0; stroke-opacity:1; 
stroke-linecap:round; stroke-linejoin:round;">
<g >
</g>
<g style="fill:#840000; fill-opacity:0.0; 
stroke:#840000; stroke-width:0; stroke-opacity:1; 
stroke-linecap:round; stroke-linejoin:round;">
</g>
<g style="fill:#840000; fill-opacity:0.0; 
stroke:#840000; stroke-width:60; stroke-opacity:1; 
stroke-linecap:round; stroke-linejoin:round;">
<path style="fill:#840000; fill-opacity:0.0; 
stroke:#840000; stroke-width:60; stroke-opacity:1; 
stroke-linecap:round; stroke-linejoin:round;fill:none"
d="M 43200,28000
43500,27500
" /> 
<path style="fill:#840000; fill-opacity:0.0; 
stroke:#840000; stroke-width:60; stroke-opacity:1; 
stroke-linecap:round; stroke-linejoin:round;fill:none"
d="M 43500,28500
43500,27500
" /> 
<path style="fill:#840000; fill-opacity:0.0; 
stroke:#840000; stroke-width:60; stroke-opacity:1; 
stroke-linecap:round; stroke-linejoin:round;fill:none"
d="M 43500,27500
43800,28000
" /> 
</g>
<g style="fill:#008484; fill-opacity:0.0; 
stroke:#008484; stroke-width:60; stroke-opacity:1; 
stroke-linecap:round; stroke-linejoin:round;">
<text x="42500" y="27670"
textLength="1490" font-size="660" lengthAdjust="spacingAndGlyphs"
text-anchor="middle" opacity="0">VCC</text>
<path d="M41830 27140
L42000 27640
L42160 27140
" />
<path d="M42610 27590
L42590 27620
L42520 27640
L42470 27640
L42400 27620
L42350 27570
L42330 27520
L42300 27430
L42300 27360
L42330 27260
L42350 27210
L42400 27170
L42470 27140
L42520 27140
L42590 27170
L42610 27190
" />
<path d="M43110 27590
L43090 27620
L43020 27640
L42970 27640
L42900 27620
L42850 27570
L42830 27520
L42800 27430
L42800 27360
L42830 27260
L42850 27210
L42900 27170
L42970 27140
L43020 27140
L43090 27170
L43110 27190
" />
</g>
</g>
<g style="fill:#008484; fill-opacity:0.0; 
stroke:#008484; stroke-width:0; stroke-opacity:1; 
stroke-linecap:round; stroke-linejoin:round;">
<g >
</g>
<g style="fill:#840000; fill-opacity:0.0; 
stroke:#840000; stroke-width:0; stroke-opacity:1; 
stroke-linecap:round; stroke-linejoin:round;">
</g>
<g style="fill:#840000; fill-opacity:0.0; 
stroke:#840000; stroke-width:60; stroke-opacity:1; 
stroke-linecap:round; stroke-linejoin:round;">
<path style="fill:#840000; fill-opacity:0.0; 
stroke:#840000; stroke-width:60; stroke-opacity:1; 
stroke-linecap:round; stroke-linejoin:round;fill:none"
d="M 63200,28000
63500,27500
" /> 
<path style="fill:#840000; fill-opacity:0.0; 
stroke:#840000; stroke-width:60; stroke-opacity:1; 
stroke-linecap:round; stroke-linejoin:round;fill:none"
d="M 63500,28500
63500,27500
" /> 
<path style="fill:#840000; fill-opacity:0.0; 
stroke:#840000; stroke-width:60; stroke-opacity:1; 
stroke-linecap:round; stroke-linejoin:round;fill:none"
d="M 63500,27500
63800,28000
" /> 
</g>
<g style="fill:#008484; fill-opacity:0.0; 
stroke:#008484; stroke-width:60; stroke-opacity:1; 
stroke-linecap:round; stroke-linejoin:round;">
<text x="62500" y="27670"
textLength="1490" font-size="660" lengthAdjust="spacingAndGlyphs"
text-anchor="middle" opacity="0">VCC</text>
<path d="M61830 27140
L62000 27640
L62160 27140
" />
<path d="M62610 27590
L62590 27620
L62520 27640
L62470 27640
L62400 27620
L62350 27570
L62330 27520
L62300 27430
L62300 27360
L62330 27260
L62350 27210
L62400 27170
L62470 27140
L62520 27140
L62590 27170
L62610 27190
" />
<path d="M63110 27590
L63090 27620
L63020 27640
L62970 27640
L62900 27620
L62850 27570
L62830 27520
L62800 27430
L62800 27360
L62830 27260
L62850 27210
L62900 27170
L62970 27140
L63020 27140
L63090 27170
L63110 27190
" />
</g>
</g>
<g style="fill:#008484; fill-opacity:0.0; 
stroke:#008484; stroke-width:0; stroke-opacity:1; 
stroke-linecap:round; stroke-linejoin:round;">
<g >
</g>
<g style="fill:#840000; fill-opacity:0.0; 
stroke:#840000; stroke-width:0; stroke-opacity:1; 
stroke-linecap:round; stroke-linejoin:round;">
</g>
<g style="fill:#840000; fill-opacity:0.0; 
stroke:#840000; stroke-width:60; stroke-opacity:1; 
stroke-linecap:round; stroke-linejoin:round;">
<path style="fill:#840000; fill-opacity:0.0; 
stroke:#840000; stroke-width:60; stroke-opacity:1; 
stroke-linecap:round; stroke-linejoin:round;fill:none"
d="M 43500,37500
43500,38000
44000,38000
43500,38500
43000,38000
43500,38000
" /> 
</g>
<g style="fill:#008484; fill-opacity:0.0; 
stroke:#008484; stroke-width:60; stroke-opacity:1; 
stroke-linecap:round; stroke-linejoin:round;">
<text x="42300" y="38770"
textLength="1580" font-size="660" lengthAdjust="spacingAndGlyphs"
text-anchor="middle" opacity="0">GND</text>
<path d="M41910 38270
L41870 38240
L41800 38240
L41720 38270
L41680 38310
L41650 38360
L41630 38460
L41630 38530
L41650 38620
L41680 38670
L41720 38720
L41800 38740
L41840 38740
L41910 38720
L41940 38690
L41940 38530
L41840 38530
" />
<path d="M42150 38740
L42150 38240
L42440 38740
L42440 38240
" />
<path d="M42680 38740
L42680 38240
L42800 38240
L42870 38270
L42910 38310
L42940 38360
L42960 38460
L42960 38530
L42940 38620
L42910 38670
L42870 38720
L42800 38740
L42680 38740
" />
</g>
</g>
<g style="fill:#008484; fill-opacity:0.0; 
stroke:#008484; stroke-width:0; stroke-opacity:1; 
stroke-linecap:round; stroke-linejoin:round;">
<g >
</g>
<g style="fill:#840000; fill-opacity:0.0; 
stroke:#840000; stroke-width:0; stroke-opacity:1; 
stroke-linecap:round; stroke-linejoin:round;">
</g>
<g style="fill:#840000; fill-opacity:0.0; 
stroke:#840000; stroke-width:60; stroke-opacity:1; 
stroke-linecap:round; stroke-linejoin:round;">
<path style="fill:#840000; fill-opacity:0.0; 
stroke:#840000; stroke-width:60; stroke-opacity:1; 
stroke-linecap:round; stroke-linejoin:round;fill:none"
d="M 63500,35500
63500,36000
64000,36000
63500,36500
63000,36000
63500,36000
" /> 
</g>
<g style="fill:#008484; fill-opacity:0.0; 
stroke:#008484; stroke-width:60; stroke-opacity:1; 
stroke-linecap:round; stroke-linejoin:round;">
<text x="62300" y="36770"
textLength="1580" font-size="660" lengthAdjust="spacingAndGlyphs"
text-anchor="middle" opacity="0">GND</text>
<path d="M61910 36270
L61870 36240
L61800 36240
L61720 36270
L61680 36310
L61650 36360
L61630 36460
L61630 36530
L61650 36620
L61680 36670
L61720 36720
L61800 36740
L61840 36740
L61910 36720
L61940 36690
L61940 36530
L61840 36530
" />
<path d="M62150 36740
L62150 36240
L62440 36740
L62440 36240
" />
<path d="M62680 36740
L62680 36240
L62800 36240
L62870 36270
L62910 36310
L62940 36360
L62960 36460
L62960 36530
L62940 36620
L62910 36670
L62870 36720
L62800 36740
L62680 36740
" />
</g>
</g>
<g style="fill:#008484; fill-opacity:0.0; 
stroke:#008484; stroke-width:0; stroke-opacity:1; 
stroke-linecap:round; stroke-linejoin:round;">
<g >
</g>
<g style="fill:#840000; fill-opacity:0.0; 
stroke:#840000; stroke-width:0; stroke-opacity:1; 
stroke-linecap:round; stroke-linejoin:round;">
</g>
<g style="fill:#840000; fill-opacity:0.0; 
stroke:#840000; stroke-width:60; stroke-opacity:1; 
stroke-linecap:round; stroke-linejoin:round;">
<rect x="41000" y="29500" width="5000" height="7000" rx="0" />
<path d="M41000 30000
L40000 30000
" />
</g>
<g style="fill:#008484; fill-opacity:0.0; 
stroke:#008484; stroke-width:60; stroke-opacity:1; 
stroke-linecap:round; stroke-linejoin:round;">
<text x="41400" y="30250"
textLength="820" font-size="660" lengthAdjust="spacingAndGlyphs"
text-anchor="start" opacity="0">IN</text>
<path d="M41540 30220
L41540 29720
" />
<path d="M41780 30220
L41780 29720
L42070 30220
L42070 29720
" />
</g>
<g style="fill:#840000; fill-opacity:0.0; 
stroke:#840000; stroke-width:60; stroke-opacity:1; 
stroke-linecap:round; stroke-linejoin:round;">
<text x="40500" y="29900"
textLength="540" font-size="660" lengthAdjust="spacingAndGlyphs"
text-anchor="middle" opacity="0">1</text>
<path d="M40640 29870
L40350 29870
" />
<path d="M40500 29870
L40500 29370
L40450 29440
L40400 29490
L40350 29510
" />
<path d="M46000 32000
L47000 32000
" />
</g>
<g style="fill:#008484; fill-opacity:0.0; 
stroke:#008484; stroke-width:60; stroke-opacity:1; 
stroke-linecap:round; stroke-linejoin:round;">
<text x="45600" y="32250"
textLength="1850" font-size="660" lengthAdjust="spacingAndGlyphs"
text-anchor="end" opacity="0">TAP3</text>
<path d="M43830 31720
L44110 31720
" />
<path d="M43970 32220
L43970 31720
" />
<path d="M44260 32080
L44490 32080
" />
<path d="M44210 32220
L44370 31720
L44540 32220
" />
<path d="M44710 32220
L44710 31720
L44900 31720
L44950 31750
L44970 31770
L44990 31820
L44990 31890
L44970 31940
L44950 31960
L44900 31980
L44710 31980
" />
<path d="M45160 31720
L45470 31720
L45300 31910
L45370 31910
L45420 31940
L45450 31960
L45470 32010
L45470 32130
L45450 32170
L45420 32200
L45370 32220
L45230 32220
L45180 32200
L45160 32170
" />
</g>
<g style="fill:#840000; fill-opacity:0.0; 
stroke:#840000; stroke-width:60; stroke-opacity:1; 
stroke-linecap:round; stroke-linejoin:round;">
<text x="46500" y="31900"
textLength="1010" font-size="660" lengthAdjust="spacingAndGlyphs"
text-anchor="middle" opacity="0">10</text>
<path d="M46400 31870
L46110 31870
" />
<path d="M46260 31870
L46260 31370
L46210 31440
L46160 31490
L46110 31510
" />
<path d="M46710 31370
L46760 31370
L46800 31400
L46830 31420
L46850 31470
L46880 31560
L46880 31680
L46850 31780
L46830 31820
L46800 31850
L46760 31870
L46710 31870
L46660 31850
L46640 31820
L46610 31780
L46590 31680
L46590 31560
L46610 31470
L46640 31420
L46660 31400
L46710 31370
" />
<path d="M41000 35000
L40000 35000
" />
<path d="M39850 34850
L40150 35150
" />
<path d="M40150 34850
L39850 35150
" />
<text x="40500" y="34900"
textLength="1010" font-size="660" lengthAdjust="spacingAndGlyphs"
text-anchor="middle" opacity="0">11</text>
<path d="M40400 34870
L40110 34870
" />
<path d="M40260 34870
L40260 34370
L40210 34440
L40160 34490
L40110 34510
" />
<path d="M40880 34870
L40590 34870
" />
<path d="M40730 34870
L40730 34370
L40690 34440
L40640 34490
L40590 34510
" />
<path d="M46000 30000
L47000 30000
" />
</g>
<g style="fill:#008484; fill-opacity:0.0; 
stroke:#008484; stroke-width:60; stroke-opacity:1; 
stroke-linecap:round; stroke-linejoin:round;">
<text x="45600" y="30250"
textLength="1850" font-size="660" lengthAdjust="spacingAndGlyphs"
text-anchor="end" opacity="0">TAP1</text>
<path d="M43830 29720
L44110 29720
" />
<path d="M43970 30220
L43970 29720
" />
<path d="M44260 30080
L44490 30080
" />
<path d="M44210 30220
L44370 29720
L44540 30220
" />
<path d="M44710 30220
L44710 29720
L44900 29720
L44950 29750
L44970 29770
L44990 29820
L44990 29890
L44970 29940
L44950 29960
L44900 29980
L44710 29980
" />
<path d="M45470 30220
L45180 30220
" />
<path d="M45330 30220
L45330 29720
L45280 29790
L45230 29840
L45180 29860
" />
</g>
<g style="fill:#840000; fill-opacity:0.0; 
stroke:#840000; stroke-width:60; stroke-opacity:1; 
stroke-linecap:round; stroke-linejoin:round;">
<text x="46500" y="29900"
textLength="1010" font-size="660" lengthAdjust="spacingAndGlyphs"
text-anchor="middle" opacity="0">12</text>
<path d="M46400 29870
L46110 29870
" />
<path d="M46260 29870
L46260 29370
L46210 29440
L46160 29490
L46110 29510
" />
<path d="M46590 29420
L46610 29400
L46660 29370
L46780 29370
L46830 29400
L46850 29420
L46880 29470
L46880 29510
L46850 29590
L46570 29870
L46880 29870
" />
<path d="M41000 36000
L40000 36000
" />
<path d="M39850 35850
L40150 36150
" />
<path d="M40150 35850
L39850 36150
" />
<text x="40500" y="35900"
textLength="1010" font-size="660" lengthAdjust="spacingAndGlyphs"
text-anchor="middle" opacity="0">13</text>
<path d="M40400 35870
L40110 35870
" />
<path d="M40260 35870
L40260 35370
L40210 35440
L40160 35490
L40110 35510
" />
<path d="M40570 35370
L40880 35370
L40710 35560
L40780 35560
L40830 35590
L40850 35610
L40880 35660
L40880 35780
L40850 35820
L40830 35850
L40780 35870
L40640 35870
L40590 35850
L40570 35820
" />
<path d="M43500 29500
L43500 28500
" />
</g>
<g style="fill:#008484; fill-opacity:0.0; 
stroke:#008484; stroke-width:60; stroke-opacity:1; 
stroke-linecap:round; stroke-linejoin:round;">
<g transform="rotate(-90 43500 29900)">
<text x="43500" y="30150"
textLength="1490" font-size="660" lengthAdjust="spacingAndGlyphs"
text-anchor="end" opacity="0">VCC</text>
</g>
<path d="M43220 31310
L43720 31140
L43220 30970
" />
<path d="M43670 30520
L43700 30540
L43720 30620
L43720 30660
L43700 30730
L43650 30780
L43600 30810
L43510 30830
L43440 30830
L43340 30810
L43290 30780
L43250 30730
L43220 30660
L43220 30620
L43250 30540
L43270 30520
" />
<path d="M43670 30020
L43700 30040
L43720 30120
L43720 30160
L43700 30230
L43650 30280
L43600 30310
L43510 30330
L43440 30330
L43340 30310
L43290 30280
L43250 30230
L43220 30160
L43220 30120
L43250 30040
L43270 30020
" />
</g>
<g style="fill:#840000; fill-opacity:0.0; 
stroke:#840000; stroke-width:60; stroke-opacity:1; 
stroke-linecap:round; stroke-linejoin:round;">
<g transform="rotate(-90 43400 29000)">
<text x="43400" y="29000"
textLength="1010" font-size="660" lengthAdjust="spacingAndGlyphs"
text-anchor="middle" opacity="0">14</text>
</g>
<path d="M43370 29090
L43370 29380
" />
<path d="M43370 29230
L42870 29230
L42940 29280
L42990 29330
L43010 29380
" />
<path d="M43040 28660
L43370 28660
" />
<path d="M42850 28780
L43200 28900
L43200 28590
" />
<path d="M41000 31000
L40000 31000
" />
<path d="M39850 30850
L40150 31150
" />
<path d="M40150 30850
L39850 31150
" />
<text x="40500" y="30900"
textLength="540" font-size="660" lengthAdjust="spacingAndGlyphs"
text-anchor="middle" opacity="0">2</text>
<path d="M40350 30420
L40380 30400
L40420 30370
L40540 30370
L40590 30400
L40610 30420
L40640 30470
L40640 30510
L40610 30590
L40330 30870
L40640 30870
" />
<path d="M41000 32000
L40000 32000
" />
<path d="M39850 31850
L40150 32150
" />
<path d="M40150 31850
L39850 32150
" />
<text x="40500" y="31900"
textLength="540" font-size="660" lengthAdjust="spacingAndGlyphs"
text-anchor="middle" opacity="0">3</text>
<path d="M40330 31370
L40640 31370
L40470 31560
L40540 31560
L40590 31590
L40610 31610
L40640 31660
L40640 31780
L40610 31820
L40590 31850
L40540 31870
L40400 31870
L40350 31850
L40330 31820
" />
<path d="M46000 31000
L47000 31000
" />
</g>
<g style="fill:#008484; fill-opacity:0.0; 
stroke:#008484; stroke-width:60; stroke-opacity:1; 
stroke-linecap:round; stroke-linejoin:round;">
<text x="45600" y="31250"
textLength="1850" font-size="660" lengthAdjust="spacingAndGlyphs"
text-anchor="end" opacity="0">TAP2</text>
<path d="M43830 30720
L44110 30720
" />
<path d="M43970 31220
L43970 30720
" />
<path d="M44260 31080
L44490 31080
" />
<path d="M44210 31220
L44370 30720
L44540 31220
" />
<path d="M44710 31220
L44710 30720
L44900 30720
L44950 30750
L44970 30770
L44990 30820
L44990 30890
L44970 30940
L44950 30960
L44900 30980
L44710 30980
" />
<path d="M45180 30770
L45210 30750
L45260 30720
L45370 30720
L45420 30750
L45450 30770
L45470 30820
L45470 30860
L45450 30940
L45160 31220
L45470 31220
" />
</g>
<g style="fill:#840000; fill-opacity:0.0; 
stroke:#840000; stroke-width:60; stroke-opacity:1; 
stroke-linecap:round; stroke-linejoin:round;">
<text x="46500" y="30900"
textLength="540" font-size="660" lengthAdjust="spacingAndGlyphs"
text-anchor="middle" opacity="0">4</text>
<path d="M46590 30540
L46590 30870
" />
<path d="M46470 30350
L46350 30700
L46660 30700
" />
<path d="M41000 33000
L40000 33000
" />
<path d="M39850 32850
L40150 33150
" />
<path d="M40150 32850
L39850 33150
" />
<text x="40500" y="32900"
textLength="540" font-size="660" lengthAdjust="spacingAndGlyphs"
text-anchor="middle" opacity="0">5</text>
<path d="M40610 32370
L40380 32370
L40350 32610
L40380 32590
L40420 32560
L40540 32560
L40590 32590
L40610 32610
L40640 32660
L40640 32780
L40610 32820
L40590 32850
L40540 32870
L40420 32870
L40380 32850
L40350 32820
" />
<path d="M46000 33000
L47000 33000
" />
</g>
<g style="fill:#008484; fill-opacity:0.0; 
stroke:#008484; stroke-width:60; stroke-opacity:1; 
stroke-linecap:round; stroke-linejoin:round;">
<text x="45600" y="33250"
textLength="1850" font-size="660" lengthAdjust="spacingAndGlyphs"
text-anchor="end" opacity="0">TAP4</text>
<path d="M43830 32720
L44110 32720
" />
<path d="M43970 33220
L43970 32720
" />
<path d="M44260 33080
L44490 33080
" />
<path d="M44210 33220
L44370 32720
L44540 33220
" />
<path d="M44710 33220
L44710 32720
L44900 32720
L44950 32750
L44970 32770
L44990 32820
L44990 32890
L44970 32940
L44950 32960
L44900 32980
L44710 32980
" />
<path d="M45420 32890
L45420 33220
" />
<path d="M45300 32700
L45180 33050
L45490 33050
" />
</g>
<g style="fill:#840000; fill-opacity:0.0; 
stroke:#840000; stroke-width:60; stroke-opacity:1; 
stroke-linecap:round; stroke-linejoin:round;">
<text x="46500" y="32900"
textLength="540" font-size="660" lengthAdjust="spacingAndGlyphs"
text-anchor="middle" opacity="0">6</text>
<path d="M46590 32370
L46500 32370
L46450 32400
L46420 32420
L46380 32490
L46350 32590
L46350 32780
L46380 32820
L46400 32850
L46450 32870
L46540 32870
L46590 32850
L46610 32820
L46640 32780
L46640 32660
L46610 32610
L46590 32590
L46540 32560
L46450 32560
L46400 32590
L46380 32610
L46350 32660
" />
<path d="M43500 36500
L43500 37500
" />
</g>
<g style="fill:#008484; fill-opacity:0.0; 
stroke:#008484; stroke-width:60; stroke-opacity:1; 
stroke-linecap:round; stroke-linejoin:round;">
<g transform="rotate(-90 43500 36100)">
<text x="43500" y="36350"
textLength="1580" font-size="660" lengthAdjust="spacingAndGlyphs"
text-anchor="start" opacity="0">GND</text>
</g>
<path d="M43250 35680
L43220 35730
L43220 35800
L43250 35870
L43290 35920
L43340 35950
L43440 35970
L43510 35970
L43600 35950
L43650 35920
L43700 35870
L43720 35800
L43720 35760
L43700 35680
L43670 35660
L43510 35660
L43510 35760
" />
<path d="M43720 35450
L43220 35450
L43720 35160
L43220 35160
" />
<path d="M43720 34920
L43220 34920
L43220 34800
L43250 34730
L43290 34680
L43340 34660
L43440 34640
L43510 34640
L43600 34660
L43650 34680
L43700 34730
L43720 34800
L43720 34920
" />
</g>
<g style="fill:#840000; fill-opacity:0.0; 
stroke:#840000; stroke-width:60; stroke-opacity:1; 
stroke-linecap:round; stroke-linejoin:round;">
<g transform="rotate(-90 43400 37000)">
<text x="43400" y="37000"
textLength="540" font-size="660" lengthAdjust="spacingAndGlyphs"
text-anchor="middle" opacity="0">7</text>
</g>
<path d="M42870 37160
L42870 36830
L43370 37040
" />
<path d="M46000 34000
L47000 34000
" />
</g>
<g style="fill:#008484; fill-opacity:0.0; 
stroke:#008484; stroke-width:60; stroke-opacity:1; 
stroke-linecap:round; stroke-linejoin:round;">
<text x="45600" y="34250"
textLength="1850" font-size="660" lengthAdjust="spacingAndGlyphs"
text-anchor="end" opacity="0">TAP5</text>
<path d="M43830 33720
L44110 33720
" />
<path d="M43970 34220
L43970 33720
" />
<path d="M44260 34080
L44490 34080
" />
<path d="M44210 34220
L44370 33720
L44540 34220
" />
<path d="M44710 34220
L44710 33720
L44900 33720
L44950 33750
L44970 33770
L44990 33820
L44990 33890
L44970 33940
L44950 33960
L44900 33980
L44710 33980
" />
<path d="M45450 33720
L45210 33720
L45180 33960
L45210 33940
L45260 33910
L45370 33910
L45420 33940
L45450 33960
L45470 34010
L45470 34130
L45450 34170
L45420 34200
L45370 34220
L45260 34220
L45210 34200
L45180 34170
" />
</g>
<g style="fill:#840000; fill-opacity:0.0; 
stroke:#840000; stroke-width:60; stroke-opacity:1; 
stroke-linecap:round; stroke-linejoin:round;">
<text x="46500" y="33900"
textLength="540" font-size="660" lengthAdjust="spacingAndGlyphs"
text-anchor="middle" opacity="0">8</text>
<path d="M46450 33590
L46400 33560
L46380 33540
L46350 33490
L46350 33470
L46380 33420
L46400 33400
L46450 33370
L46540 33370
L46590 33400
L46610 33420
L46640 33470
L46640 33490
L46610 33540
L46590 33560
L46540 33590
L46450 33590
L46400 33610
L46380 33630
L46350 33680
L46350 33780
L46380 33820
L46400 33850
L46450 33870
L46540 33870
L46590 33850
L46610 33820
L46640 33780
L46640 33680
L46610 33630
L46590 33610
L46540 33590
" />
<path d="M41000 34000
L40000 34000
" />
<path d="M39850 33850
L40150 34150
" />
<path d="M40150 33850
L39850 34150
" />
<text x="40500" y="33900"
textLength="540" font-size="660" lengthAdjust="spacingAndGlyphs"
text-anchor="middle" opacity="0">9</text>
<path d="M40400 33870
L40500 33870
L40540 33850
L40570 33820
L40610 33750
L40640 33660
L40640 33470
L40610 33420
L40590 33400
L40540 33370
L40450 33370
L40400 33400
L40380 33420
L40350 33470
L40350 33590
L40380 33630
L40400 33660
L40450 33680
L40540 33680
L40590 33660
L40610 33630
L40640 33590
" />
</g>
<g style="fill:#008484; fill-opacity:0.0; 
stroke:#008484; stroke-width:60; stroke-opacity:1; 
stroke-linecap:round; stroke-linejoin:round;">
<text x="45300" y="27070"
textLength="920" font-size="660" lengthAdjust="spacingAndGlyphs"
text-anchor="middle" opacity="0">J1</text>
<path d="M45130 26540
L45130 26900
L45100 26970
L45060 27020
L44990 27040
L44940 27040
" />
<path d="M45630 27040
L45340 27040
" />
<path d="M45490 27040
L45490 26540
L45440 26610
L45390 26660
L45340 26680
" />
<text x="46200" y="27870"
textLength="2940" font-size="660" lengthAdjust="spacingAndGlyphs"
text-anchor="middle" opacity="0">DS1000</text>
<path d="M44870 27840
L44870 27340
L44990 27340
L45060 27370
L45110 27410
L45140 27460
L45160 27560
L45160 27630
L45140 27720
L45110 27770
L45060 27820
L44990 27840
L44870 27840
" />
<path d="M45350 27820
L45420 27840
L45540 27840
L45590 27820
L45610 27790
L45640 27750
L45640 27700
L45610 27650
L45590 27630
L45540 27600
L45450 27580
L45400 27560
L45370 27530
L45350 27480
L45350 27440
L45370 27390
L45400 27370
L45450 27340
L45560 27340
L45640 27370
" />
<path d="M46110 27840
L45830 27840
" />
<path d="M45970 27840
L45970 27340
L45920 27410
L45870 27460
L45830 27480
" />
<path d="M46420 27340
L46470 27340
L46520 27370
L46540 27390
L46560 27440
L46590 27530
L46590 27650
L46560 27750
L46540 27790
L46520 27820
L46470 27840
L46420 27840
L46370 27820
L46350 27790
L46330 27750
L46300 27650
L46300 27530
L46330 27440
L46350 27390
L46370 27370
L46420 27340
" />
<path d="M46900 27340
L46950 27340
L46990 27370
L47020 27390
L47040 27440
L47060 27530
L47060 27650
L47040 27750
L47020 27790
L46990 27820
L46950 27840
L46900 27840
L46850 27820
L46830 27790
L46800 27750
L46780 27650
L46780 27530
L46800 27440
L46830 27390
L46850 27370
L46900 27340
" />
<path d="M47370 27340
L47420 27340
L47470 27370
L47490 27390
L47520 27440
L47540 27530
L47540 27650
L47520 27750
L47490 27790
L47470 27820
L47420 27840
L47370 27840
L47330 27820
L47300 27790
L47280 27750
L47250 27650
L47250 27530
L47280 27440
L47300 27390
L47330 27370
L47370 27340
" />
</g>
</g>
<g style="fill:#008484; fill-opacity:0.0; 
stroke:#008484; stroke-width:60; stroke-opacity:1; 
stroke-linecap:round; stroke-linejoin:round;">
</g>
<g style="fill:#000000; fill-opacity:0.0; 
stroke:#000000; stroke-width:60; stroke-opacity:1; 
stroke-linecap:round; stroke-linejoin:round;">
<text x="47000" y="32900"
textLength="1850" font-size="660" lengthAdjust="spacingAndGlyphs"
text-anchor="start" opacity="0">TAP4</text>
<path d="M47070 32370
L47360 32370
" />
<path d="M47220 32870
L47220 32370
" />
<path d="M47500 32730
L47740 32730
" />
<path d="M47450 32870
L47620 32370
L47790 32870
" />
<path d="M47950 32870
L47950 32370
L48140 32370
L48190 32400
L48220 32420
L48240 32470
L48240 32540
L48220 32590
L48190 32610
L48140 32630
L47950 32630
" />
<path d="M48670 32540
L48670 32870
" />
<path d="M48550 32350
L48430 32700
L48740 32700
" />
<text x="67000" y="33900"
textLength="1850" font-size="660" lengthAdjust="spacingAndGlyphs"
text-anchor="start" opacity="0">TAP5</text>
<path d="M67070 33370
L67360 33370
" />
<path d="M67220 33870
L67220 33370
" />
<path d="M67500 33730
L67740 33730
" />
<path d="M67450 33870
L67620 33370
L67790 33870
" />
<path d="M67950 33870
L67950 33370
L68140 33370
L68190 33400
L68220 33420
L68240 33470
L68240 33540
L68220 33590
L68190 33610
L68140 33630
L67950 33630
" />
<path d="M68690 33370
L68450 33370
L68430 33610
L68450 33590
L68500 33560
L68620 33560
L68670 33590
L68690 33610
L68720 33660
L68720 33780
L68690 33820
L68670 33850
L68620 33870
L68500 33870
L68450 33850
L68430 33820
" />
<text x="67000" y="32900"
textLength="1850" font-size="660" lengthAdjust="spacingAndGlyphs"
text-anchor="start" opacity="0">TAP4</text>
<path d="M67070 32370
L67360 32370
" />
<path d="M67220 32870
L67220 32370
" />
<path d="M67500 32730
L67740 32730
" />
<path d="M67450 32870
L67620 32370
L67790 32870
" />
<path d="M67950 32870
L67950 32370
L68140 32370
L68190 32400
L68220 32420
L68240 32470
L68240 32540
L68220 32590
L68190 32610
L68140 32630
L67950 32630
" />
<path d="M68670 32540
L68670 32870
" />
<path d="M68550 32350
L68430 32700
L68740 32700
" />
<text x="67000" y="31900"
textLength="1850" font-size="660" lengthAdjust="spacingAndGlyphs"
text-anchor="start" opacity="0">TAP3</text>
<path d="M67070 31370
L67360 31370
" />
<path d="M67220 31870
L67220 31370
" />
<path d="M67500 31730
L67740 31730
" />
<path d="M67450 31870
L67620 31370
L67790 31870
" />
<path d="M67950 31870
L67950 31370
L68140 31370
L68190 31400
L68220 31420
L68240 31470
L68240 31540
L68220 31590
L68190 31610
L68140 31630
L67950 31630
" />
<path d="M68410 31370
L68720 31370
L68550 31560
L68620 31560
L68670 31590
L68690 31610
L68720 31660
L68720 31780
L68690 31820
L68670 31850
L68620 31870
L68480 31870
L68430 31850
L68410 31820
" />
<text x="67000" y="30900"
textLength="1850" font-size="660" lengthAdjust="spacingAndGlyphs"
text-anchor="start" opacity="0">TAP2</text>
<path d="M67070 30370
L67360 30370
" />
<path d="M67220 30870
L67220 30370
" />
<path d="M67500 30730
L67740 30730
" />
<path d="M67450 30870
L67620 30370
L67790 30870
" />
<path d="M67950 30870
L67950 30370
L68140 30370
L68190 30400
L68220 30420
L68240 30470
L68240 30540
L68220 30590
L68190 30610
L68140 30630
L67950 30630
" />
<path d="M68430 30420
L68450 30400
L68500 30370
L68620 30370
L68670 30400
L68690 30420
L68720 30470
L68720 30510
L68690 30590
L68410 30870
L68720 30870
" />
<text x="47000" y="33900"
textLength="1850" font-size="660" lengthAdjust="spacingAndGlyphs"
text-anchor="start" opacity="0">TAP5</text>
<path d="M47070 33370
L47360 33370
" />
<path d="M47220 33870
L47220 33370
" />
<path d="M47500 33730
L47740 33730
" />
<path d="M47450 33870
L47620 33370
L47790 33870
" />
<path d="M47950 33870
L47950 33370
L48140 33370
L48190 33400
L48220 33420
L48240 33470
L48240 33540
L48220 33590
L48190 33610
L48140 33630
L47950 33630
" />
<path d="M48690 33370
L48450 33370
L48430 33610
L48450 33590
L48500 33560
L48620 33560
L48670 33590
L48690 33610
L48720 33660
L48720 33780
L48690 33820
L48670 33850
L48620 33870
L48500 33870
L48450 33850
L48430 33820
" />
<text x="47000" y="31900"
textLength="1850" font-size="660" lengthAdjust="spacingAndGlyphs"
text-anchor="start" opacity="0">TAP3</text>
<path d="M47070 31370
L47360 31370
" />
<path d="M47220 31870
L47220 31370
" />
<path d="M47500 31730
L47740 31730
" />
<path d="M47450 31870
L47620 31370
L47790 31870
" />
<path d="M47950 31870
L47950 31370
L48140 31370
L48190 31400
L48220 31420
L48240 31470
L48240 31540
L48220 31590
L48190 31610
L48140 31630
L47950 31630
" />
<path d="M48410 31370
L48720 31370
L48550 31560
L48620 31560
L48670 31590
L48690 31610
L48720 31660
L48720 31780
L48690 31820
L48670 31850
L48620 31870
L48480 31870
L48430 31850
L48410 31820
" />
<text x="47000" y="30900"
textLength="1850" font-size="660" lengthAdjust="spacingAndGlyphs"
text-anchor="start" opacity="0">TAP2</text>
<path d="M47070 30370
L47360 30370
" />
<path d="M47220 30870
L47220 30370
" />
<path d="M47500 30730
L47740 30730
" />
<path d="M47450 30870
L47620 30370
L47790 30870
" />
<path d="M47950 30870
L47950 30370
L48140 30370
L48190 30400
L48220 30420
L48240 30470
L48240 30540
L48220 30590
L48190 30610
L48140 30630
L47950 30630
" />
<path d="M48430 30420
L48450 30400
L48500 30370
L48620 30370
L48670 30400
L48690 30420
L48720 30470
L48720 30510
L48690 30590
L48410 30870
L48720 30870
" />
<text x="67000" y="29900"
textLength="1850" font-size="660" lengthAdjust="spacingAndGlyphs"
text-anchor="start" opacity="0">TAP1</text>
<path d="M67070 29370
L67360 29370
" />
<path d="M67220 29870
L67220 29370
" />
<path d="M67500 29730
L67740 29730
" />
<path d="M67450 29870
L67620 29370
L67790 29870
" />
<path d="M67950 29870
L67950 29370
L68140 29370
L68190 29400
L68220 29420
L68240 29470
L68240 29540
L68220 29590
L68190 29610
L68140 29630
L67950 29630
" />
<path d="M68720 29870
L68430 29870
" />
<path d="M68570 29870
L68570 29370
L68530 29440
L68480 29490
L68430 29510
" />
<text x="47000" y="29900"
textLength="1850" font-size="660" lengthAdjust="spacingAndGlyphs"
text-anchor="start" opacity="0">TAP1</text>
<path d="M47070 29370
L47360 29370
" />
<path d="M47220 29870
L47220 29370
" />
<path d="M47500 29730
L47740 29730
" />
<path d="M47450 29870
L47620 29370
L47790 29870
" />
<path d="M47950 29870
L47950 29370
L48140 29370
L48190 29400
L48220 29420
L48240 29470
L48240 29540
L48220 29590
L48190 29610
L48140 29630
L47950 29630
" />
<path d="M48720 29870
L48430 29870
" />
<path d="M48570 29870
L48570 29370
L48530 29440
L48480 29490
L48430 29510
" />
<text x="60000" y="29900"
textLength="820" font-size="660" lengthAdjust="spacingAndGlyphs"
text-anchor="end" opacity="0">IN</text>
<path d="M59320 29870
L59320 29370
" />
<path d="M59560 29870
L59560 29370
L59850 29870
L59850 29370
" />
<text x="40000" y="29900"
textLength="820" font-size="660" lengthAdjust="spacingAndGlyphs"
text-anchor="end" opacity="0">IN</text>
<path d="M39320 29870
L39320 29370
" />
<path d="M39560 29870
L39560 29370
L39850 29870
L39850 29370
" />
</g>
<g style="fill:#000084; fill-opacity:0.0; 
stroke:#000084; stroke-width:60; stroke-opacity:1; 
stroke-linecap:round; stroke-linejoin:round;">
<path d="M39760 30760
L40240 31240
" />
<path d="M40240 30760
L39760 31240
" />
<path d="M39760 31760
L40240 32240
" />
<path d="M40240 31760
L39760 32240
" />
<path d="M39760 33760
L40240 34240
" />
<path d="M40240 33760
L39760 34240
" />
<path d="M39760 32760
L40240 33240
" />
<path d="M40240 32760
L39760 33240
" />
<path d="M39760 34760
L40240 35240
" />
<path d="M40240 34760
L39760 35240
" />
<path d="M39760 35760
L40240 36240
" />
<path d="M40240 35760
L39760 36240
" />
</g> 
</svg>
